<?xml version="1.0" encoding="utf-8"?>
<!-- Generator: Adobe Illustrator 23.0.2, SVG Export Plug-In . SVG Version: 6.00 Build 0)  -->
<svg version="1.1" id="Layer_1" xmlns="http://www.w3.org/2000/svg" xmlns:xlink="http://www.w3.org/1999/xlink" x="0px" y="0px"
	 viewBox="0 0 80.11 80.59" style="enable-background:new 0 0 80.11 80.59;" xml:space="preserve">
<style type="text/css">
	.st0{fill:#FFFFFF;}
	.st1{fill-rule:evenodd;clip-rule:evenodd;fill:#FFFFFF;}
</style>
<g>
	<path class="st0" d="M39.99,77.34c-0.2,0.02-0.39,0.02-0.59,0.01c-0.98-0.02-1.6-0.48-1.58-1.57c0.02-0.9,0.57-1.38,1.38-1.36
		c0.3,0,0.54,0.05,0.84,0.1L39.99,77.34z M40.97,74.26l-1.7-0.03c-1.07-0.02-1.94,0.47-1.96,1.72c-0.02,1.19,0.85,1.56,1.84,1.58
		l1.76,0.03l0-0.16l-0.46-0.09l0.05-2.82l0.46-0.07L40.97,74.26z"/>
	<path class="st0" d="M39.99,77.34c-0.2,0.02-0.39,0.02-0.59,0.01c-0.98-0.02-1.6-0.48-1.58-1.57c0.02-0.9,0.57-1.38,1.38-1.36
		c0.3,0,0.54,0.05,0.84,0.1L39.99,77.34z M40.97,74.26l-1.7-0.03c-1.07-0.02-1.94,0.47-1.96,1.72c-0.02,1.19,0.85,1.56,1.84,1.58
		l1.76,0.03l0-0.16l-0.46-0.09l0.05-2.82l0.46-0.07L40.97,74.26z"/>
	<path class="st0" d="M35.46,77.02l-1.04-0.13l-0.07-0.48L34.2,76.4l-0.02,0.73l2.16,0.27l0.02-0.16l-0.45-0.13l0.34-2.8l0.47-0.02
		l0.02-0.16l-2.38-0.29l-0.29,0.77l0.17,0.02l0.25-0.49l1.3,0.16l-0.16,1.28l-0.87-0.11l-0.04-0.37l-0.14-0.02
		c0,0.26-0.06,0.7-0.12,0.95l0.14,0.02l0.13-0.34l0.86,0.11L35.46,77.02z"/>
	<path class="st0" d="M33.62,73.88l0.03-0.16l-1.45-0.31l-0.03,0.16l0.5,0.19l-0.59,2.8c-0.12-0.01-0.24-0.03-0.36-0.06
		c-0.41-0.09-0.67-0.36-0.6-0.86c0.05-0.37,0.26-0.83,0.89-0.7c0.08,0.02,0.15,0.05,0.22,0.08L32.25,75l0.03-0.13
		c-0.1-0.04-0.2-0.08-0.31-0.1c-0.63-0.14-1.2,0.22-1.34,0.86c-0.14,0.64,0.34,0.91,0.93,1.03l1.41,0.3L33,76.79l-0.46-0.18
		l0.59-2.76L33.62,73.88z"/>
	<path class="st0" d="M28.42,73.61l-0.06-1.06l0.46,0.08l0.05-0.15l-1.29-0.44l-0.05,0.15l0.35,0.21l0.21,3.38l0.23,0.08l2.19-2.56
		l0.41,0.06l0.05-0.15l-1.12-0.38l-0.05,0.15l0.41,0.23L29.55,74L28.42,73.61z M28.52,75.24l-0.08-1.37l0.95,0.33L28.52,75.24z"/>
	<path class="st0" d="M28.42,73.61l-0.06-1.06l0.46,0.08l0.05-0.15l-1.29-0.44l-0.05,0.15l0.35,0.21l0.21,3.38l0.23,0.08l2.19-2.56
		l0.41,0.06l0.05-0.15l-1.12-0.38l-0.05,0.15l0.41,0.23L29.55,74L28.42,73.61z M28.52,75.24l-0.08-1.37l0.95,0.33L28.52,75.24z"/>
	<path class="st0" d="M25.02,74.38c-0.08-0.01-0.16-0.04-0.24-0.08c-0.49-0.22-0.61-0.6-0.4-1.08c0.27-0.61,0.53-0.52,1.07-0.28
		c0.06,0.03,0.13,0.06,0.18,0.08L25.02,74.38z M27.09,72.08l0.06-0.15l-1.29-0.58l-0.06,0.15l0.39,0.26l-0.47,1.06
		c-0.16-0.07-0.32-0.14-0.46-0.19c-0.09-0.52-0.22-1.08-0.38-1.61c-0.01-0.04-0.16-0.15-0.25-0.22l-0.29-0.23l-0.1,0.11
		c0.22,0.23,0.29,0.6,0.36,0.89l0.23,0.99c-0.39,0.07-0.77,0.28-0.94,0.65c-0.23,0.51,0.08,0.92,0.51,1.11l1.42,0.63l0.06-0.15
		l-0.41-0.27l1.15-2.57L27.09,72.08z"/>
	<path class="st0" d="M25.02,74.38c-0.08-0.01-0.16-0.04-0.24-0.08c-0.49-0.22-0.61-0.6-0.4-1.08c0.27-0.61,0.53-0.52,1.07-0.28
		c0.06,0.03,0.13,0.06,0.18,0.08L25.02,74.38z M27.09,72.08l0.06-0.15l-1.29-0.58l-0.06,0.15l0.39,0.26l-0.47,1.06
		c-0.16-0.07-0.32-0.14-0.46-0.19c-0.09-0.52-0.22-1.08-0.38-1.61c-0.01-0.04-0.16-0.15-0.25-0.22l-0.29-0.23l-0.1,0.11
		c0.22,0.23,0.29,0.6,0.36,0.89l0.23,0.99c-0.39,0.07-0.77,0.28-0.94,0.65c-0.23,0.51,0.08,0.92,0.51,1.11l1.42,0.63l0.06-0.15
		l-0.41-0.27l1.15-2.57L27.09,72.08z"/>
	<path class="st0" d="M23.24,70.28l0.08-0.14l-1.31-0.76l-0.08,0.14l0.41,0.33l-1.4,2.42l-0.52-0.3c-0.15-0.09-0.29-0.18-0.42-0.26
		l0.16-0.51l-0.15-0.09l-0.37,0.72l2.68,1.55l0.49-0.65l-0.14-0.08l-0.41,0.37c-0.13-0.06-0.27-0.13-0.42-0.22l-0.51-0.29l1.4-2.42
		L23.24,70.28z"/>
	<polygon class="st0" points="15.58,68.78 15.49,68.91 16.3,69.5 18.56,68.14 17.98,70.72 18.81,71.32 18.9,71.19 18.55,70.83 
		20.43,68.72 20.8,68.89 20.9,68.76 19.99,68.11 19.9,68.24 20.21,68.56 18.5,70.5 18.5,70.51 18.49,70.5 19.16,67.53 19.12,67.5 
		16.48,69.11 16.47,69.11 16.46,69.11 17.82,66.82 18.24,67.03 18.33,66.9 17.23,66.1 17.13,66.22 17.44,66.55 16.01,68.99 	"/>
	<path class="st0" d="M14.04,67.21l-0.74-0.74l0.24-0.42l-0.1-0.1l-0.47,0.56l1.54,1.54l0.11-0.11l-0.27-0.38l1.99-2l0.38,0.27
		l0.11-0.11l-1.7-1.7l-0.71,0.43l0.12,0.12l0.5-0.23l0.93,0.93l-0.91,0.91l-0.62-0.62l0.2-0.32l-0.1-0.1
		c-0.16,0.2-0.47,0.51-0.68,0.67l0.1,0.1l0.31-0.19l0.61,0.62L14.04,67.21z"/>
	<path class="st0" d="M14.47,63.7l0.12-0.1l-0.78-0.93l-0.12,0.1l0.25,0.42l-1.9,1.59c0.1-0.76,0.44-3.2,0.5-3.67l-0.15-0.18
		l-2.36,1.99l-0.36-0.3l-0.12,0.1l0.77,0.92l0.12-0.1l-0.23-0.41l1.79-1.5l-0.48,3.43l0.56,0.66l0.12-0.1l-0.24-0.41l2.16-1.81
		L14.47,63.7z"/>
	<path class="st0" d="M11.19,59.61l0.13-0.09l-0.85-1.25l-0.13,0.09l0.23,0.48L8.25,60.4l-0.33-0.5c-0.1-0.15-0.19-0.29-0.26-0.42
		l0.37-0.39l-0.1-0.15l-0.65,0.49L9.01,62l0.73-0.37l-0.09-0.14l-0.53,0.15c-0.09-0.11-0.19-0.24-0.28-0.38l-0.33-0.49l2.32-1.56
		L11.19,59.61z"/>
	<path class="st0" d="M4.98,55.07c0.41,0.95,1.28,1.27,2.28,0.85c0.87-0.37,1.32-1.19,0.85-2.3c-0.4-0.94-1.26-1.3-2.14-0.93
		C4.97,53.12,4.51,53.96,4.98,55.07 M6.86,55.54c-0.79,0.34-1.43,0.13-1.71-0.52c-0.27-0.63,0.05-1.46,0.96-1.85
		c0.71-0.3,1.47-0.32,1.81,0.49C8.25,54.42,7.82,55.14,6.86,55.54"/>
	<path class="st0" d="M4.98,55.07c0.41,0.95,1.28,1.27,2.28,0.85c0.87-0.37,1.32-1.19,0.85-2.3c-0.4-0.94-1.26-1.3-2.14-0.93
		C4.97,53.12,4.51,53.96,4.98,55.07 M6.86,55.54c-0.79,0.34-1.43,0.13-1.71-0.52c-0.27-0.63,0.05-1.46,0.96-1.85
		c0.71-0.3,1.47-0.32,1.81,0.49C8.25,54.42,7.82,55.14,6.86,55.54"/>
	<path class="st0" d="M5.37,50.01l-0.04-0.13c-0.23,0.11-0.65,0.24-0.91,0.29l0.04,0.13l0.37-0.02l0.29,0.9l-1.16,0.38l-0.33-1.02
		l0.43-0.26l-0.05-0.15l-0.7,0.29l0.7,2.15l0.15-0.05l-0.08-0.51l2.68-0.87L7,51.6l0.15-0.05l-0.46-1.41l-0.15,0.05l0.08,0.51
		l-1.27,0.41l-0.29-0.91L5.37,50.01z"/>
	<polygon class="st0" points="4.07,46.33 3.74,44.49 5.08,44.25 5.24,44.69 5.4,44.66 5.16,43.3 5,43.32 5,43.79 2.23,44.28 
		2.07,43.84 1.91,43.87 2.15,45.24 2.31,45.21 2.31,44.74 3.51,44.53 3.83,46.37 2.63,46.58 2.47,46.14 2.31,46.17 2.55,47.54 
		2.71,47.51 2.71,47.04 5.49,46.55 5.65,46.99 5.8,46.96 5.56,45.59 5.41,45.62 5.41,46.09 	"/>
	<path class="st0" d="M2.1,42.08l-0.07-1.04l0.45-0.16l-0.01-0.15l-0.72,0.12l0.15,2.17l0.16-0.01l0.05-0.47l2.81-0.2l0.11,0.46
		l0.16-0.01l-0.17-2.4l-0.81-0.14l0.01,0.17l0.53,0.16l0.09,1.31l-1.29,0.09l-0.06-0.87L3.85,41l-0.01-0.14
		c-0.25,0.05-0.7,0.08-0.95,0.07l0.01,0.14l0.36,0.06L3.31,42L2.1,42.08z"/>
	<path class="st0" d="M3.85,37.52l0.99-0.39l0.07,0.46l0.16,0l0.02-1.37l-0.16,0l-0.09,0.4L1.7,37.87l0,0.24L4.8,39.4l0.07,0.4
		l0.16,0l0.02-1.18l-0.16,0L4.8,39.08l-0.98-0.37L3.85,37.52z M2.33,38.11l1.28-0.5l-0.02,1.01L2.33,38.11z"/>
	<path class="st0" d="M3.85,37.52l0.99-0.39l0.07,0.46l0.16,0l0.02-1.37l-0.16,0l-0.09,0.4L1.7,37.87l0,0.24L4.8,39.4l0.07,0.4
		l0.16,0l0.02-1.18l-0.16,0L4.8,39.08l-0.98-0.37L3.85,37.52z M2.33,38.11l1.28-0.5l-0.02,1.01L2.33,38.11z"/>
	<polygon class="st0" points="5.21,35.72 5.62,33.4 4.74,33.03 4.71,33.19 5.29,33.57 5.09,34.75 2.36,34.27 2.36,33.8 2.2,33.78 
		1.96,35.14 2.12,35.17 2.28,34.73 5.05,35.22 5.05,35.69 	"/>
	<path class="st0" d="M5.65,32.38l0.16,0.04l0.37-1.47l-0.16-0.04L5.81,31.4L3.1,30.73l0.14-0.58c0.04-0.17,0.09-0.33,0.14-0.48
		l0.54,0.02l0.04-0.17l-0.8-0.16l-0.75,3.01l0.76,0.29l0.04-0.16L2.75,32.2c0.03-0.14,0.05-0.3,0.1-0.46l0.14-0.57l2.71,0.68
		L5.65,32.38z"/>
	<polygon class="st0" points="5.27,28.33 5.88,26.56 7.17,27.01 7.09,27.47 7.25,27.52 7.7,26.21 7.54,26.16 7.32,26.57 4.66,25.65 
		4.73,25.19 4.58,25.13 4.13,26.45 4.28,26.5 4.5,26.09 5.66,26.49 5.05,28.26 3.89,27.86 3.97,27.39 3.82,27.34 3.36,28.66 
		3.52,28.71 3.74,28.3 6.41,29.21 6.33,29.68 6.48,29.73 6.94,28.42 6.79,28.36 6.56,28.78 	"/>
	<path class="st0" d="M7.96,23.35c-0.29-0.17-0.41-0.49-0.4-0.81c0.51-0.28,1.03-0.55,1.53-0.81c0.14,0.35,0.19,0.73,0.05,1.09
		C8.95,23.32,8.46,23.64,7.96,23.35 M7.21,22.23C7,22.25,6.86,22.27,6.67,22.16c-0.24-0.14-0.34-0.37-0.19-0.62
		c0.13-0.22,0.4-0.18,0.6-0.07c0.25,0.15,0.36,0.36,0.38,0.7L7.21,22.23z M7.43,22.57c-0.04,0.36-0.06,0.94,0.46,1.24
		c0.48,0.28,0.98,0.06,1.35-0.59c0.27-0.48,0.16-1.06-0.03-1.54c0.3-0.1,0.63-0.1,0.94-0.09l0.31-0.7l-0.12-0.07
		c-0.25,0.58-0.72,0.2-1.33,0.5C8.89,21.16,8.75,21,8.55,20.89c-0.48-0.28-0.85-0.11-0.87-0.07c-0.05,0.09-0.1,0.32-0.14,0.43
		l0.08,0.04C7.7,21.1,7.78,21,7.99,20.97c0.32-0.05,0.68,0.12,0.9,0.43c-0.17,0.08-0.33,0.16-0.49,0.25L7.57,22.1
		c0.02-0.35-0.03-0.69-0.36-0.88c-0.28-0.16-0.66-0.06-0.82,0.21c-0.25,0.43-0.09,0.85,0.28,1.06C6.9,22.63,7.18,22.66,7.43,22.57"
		/>
	<path class="st0" d="M7.96,23.35c-0.29-0.17-0.41-0.49-0.4-0.81c0.51-0.28,1.03-0.55,1.53-0.81c0.14,0.35,0.19,0.73,0.05,1.09
		C8.95,23.32,8.46,23.64,7.96,23.35 M7.21,22.23C7,22.25,6.86,22.27,6.67,22.16c-0.24-0.14-0.34-0.37-0.19-0.62
		c0.13-0.22,0.4-0.18,0.6-0.07c0.25,0.15,0.36,0.36,0.38,0.7L7.21,22.23z M7.43,22.57c-0.04,0.36-0.06,0.94,0.46,1.24
		c0.48,0.28,0.98,0.06,1.35-0.59c0.27-0.48,0.16-1.06-0.03-1.54c0.3-0.1,0.63-0.1,0.94-0.09l0.31-0.7l-0.12-0.07
		c-0.25,0.58-0.72,0.2-1.33,0.5C8.89,21.16,8.75,21,8.55,20.89c-0.48-0.28-0.85-0.11-0.87-0.07c-0.05,0.09-0.1,0.32-0.14,0.43
		l0.08,0.04C7.7,21.1,7.78,21,7.99,20.97c0.32-0.05,0.68,0.12,0.9,0.43c-0.17,0.08-0.33,0.16-0.49,0.25L7.57,22.1
		c0.02-0.35-0.03-0.69-0.36-0.88c-0.28-0.16-0.66-0.06-0.82,0.21c-0.25,0.43-0.09,0.85,0.28,1.06C6.9,22.63,7.18,22.66,7.43,22.57"
		/>
	<polygon class="st0" points="10.84,17.7 11.99,16.23 13.06,17.07 12.84,17.48 12.97,17.58 13.82,16.48 13.69,16.38 13.35,16.7 
		11.13,14.97 11.35,14.55 11.22,14.45 10.37,15.55 10.49,15.65 10.84,15.33 11.8,16.08 10.65,17.56 9.69,16.81 9.91,16.39 
		9.78,16.29 8.93,17.39 9.06,17.49 9.4,17.17 11.62,18.9 11.4,19.32 11.53,19.42 12.38,18.32 12.26,18.22 11.91,18.54 	"/>
	<path class="st0" d="M14.62,11.32l-0.12-0.11l-0.92,0.92l0.12,0.11l0.38-0.27l1.15,1.15c0.18,0.18,0.48,0.48,0.5,0.76
		c0.04,0.36-0.17,0.69-0.34,0.86c-0.51,0.51-1.04,0.38-1.52-0.12l-1.21-1.22l0.27-0.38l-0.11-0.12l-0.98,0.98l0.11,0.11l0.38-0.27
		l1.34,1.34c0.5,0.53,1.18,0.59,1.88-0.11c0.75-0.75,0.57-1.47-0.08-2.12l-1.12-1.12L14.62,11.32z"/>
	<polygon class="st0" points="18.72,8.17 18.63,8.04 17.82,8.65 18.46,11.2 16.17,9.89 15.35,10.51 15.44,10.64 15.89,10.4 
		17.36,12.82 17.09,13.13 17.19,13.26 18.08,12.59 17.98,12.46 17.58,12.66 16.22,10.46 16.22,10.45 16.23,10.45 18.87,11.96 
		18.91,11.93 18.15,8.93 18.14,8.92 18.15,8.91 19.94,10.88 19.62,11.22 19.72,11.35 20.81,10.53 20.71,10.4 20.31,10.6 18.39,8.52 
			"/>
	<path class="st0" d="M22.57,8.15l0.83,0.66l-0.37,0.29l0.08,0.14l1.19-0.66l-0.08-0.14l-0.39,0.12l-2.65-2.11l-0.21,0.12l0.44,3.33
		l-0.31,0.27l0.08,0.14l1.03-0.57l-0.08-0.14l-0.44,0.15l-0.17-1.03L22.57,8.15z M21.29,7.14L22.37,8l-0.88,0.49L21.29,7.14z"/>
	<path class="st0" d="M22.57,8.15l0.83,0.66l-0.37,0.29l0.08,0.14l1.19-0.66l-0.08-0.14l-0.39,0.12l-2.65-2.11l-0.21,0.12l0.44,3.33
		l-0.31,0.27l0.08,0.14l1.03-0.57l-0.08-0.14l-0.44,0.15l-0.17-1.03L22.57,8.15z M21.29,7.14L22.37,8l-0.88,0.49L21.29,7.14z"/>
	<path class="st0" d="M24.64,8.28l0.06,0.15l1.12-0.48L25.76,7.8l-0.48,0.12l-0.97-2.28c0.7,0.32,2.93,1.35,3.36,1.56L27.9,7.1
		l-1.21-2.84L27.09,4l-0.06-0.15l-1.1,0.47l0.06,0.15l0.46-0.11l0.91,2.15l-3.14-1.46l-0.8,0.34l0.06,0.15l0.46-0.11l1.1,2.6
		L24.64,8.28z"/>
	<path class="st0" d="M31.99,2.59c-0.23,0.02-0.47-0.01-0.7,0.04c-0.65,0.14-0.95,0.61-0.85,1.1c0.25,1.17,1.74,0.59,1.91,1.38
		c0.09,0.41-0.16,0.66-0.55,0.74c-0.2,0.04-0.58,0.02-0.72-0.15c-0.09-0.12-0.19-0.3-0.28-0.54l-0.15,0.07l0.22,0.76
		c0.27,0.12,0.68,0.11,1,0.04c0.68-0.14,0.98-0.64,0.85-1.22c-0.2-0.93-1.7-0.39-1.88-1.27c-0.08-0.35,0.12-0.62,0.47-0.69
		c0.39-0.08,0.61,0.18,0.75,0.5l0.15-0.06L31.99,2.59z"/>
	<path class="st0" d="M34.07,2.42l1.04-0.13l0.19,0.45l0.15-0.02l-0.16-0.71l-2.16,0.26l0.02,0.16l0.47,0.02l0.34,2.8L33.5,5.39
		l0.02,0.16l2.38-0.29l0.09-0.82l-0.17,0.02L35.7,4.99l-1.3,0.16l-0.16-1.28l0.87-0.11l0.13,0.35l0.14-0.02
		c-0.06-0.25-0.11-0.69-0.12-0.95l-0.14,0.02l-0.05,0.36l-0.86,0.1L34.07,2.42z"/>
	<path class="st0" d="M37.52,2.01c0.08-0.02,0.16-0.03,0.26-0.03c0.53-0.01,0.81,0.28,0.82,0.81c0.01,0.66-0.27,0.7-0.85,0.71
		c-0.07,0-0.15,0-0.2,0L37.52,2.01z M36.62,4.96l0,0.16l1.41-0.02l0-0.16l-0.46-0.07L37.55,3.7c0.18,0,0.35-0.01,0.5-0.03
		c0.31,0.43,0.65,0.88,1.02,1.3c0.03,0.03,0.21,0.07,0.32,0.1l0.36,0.08l0.04-0.14c-0.3-0.12-0.52-0.42-0.7-0.65l-0.62-0.8
		c0.32-0.23,0.59-0.58,0.58-0.98c-0.01-0.56-0.46-0.8-0.94-0.79l-1.55,0.03l0,0.16l0.49,0.07l0.05,2.82L36.62,4.96z"/>
	<path class="st0" d="M37.52,2.01c0.08-0.02,0.16-0.03,0.26-0.03c0.53-0.01,0.81,0.28,0.82,0.81c0.01,0.66-0.27,0.7-0.85,0.71
		c-0.07,0-0.15,0-0.2,0L37.52,2.01z M36.62,4.96l0,0.16l1.41-0.02l0-0.16l-0.46-0.07L37.55,3.7c0.18,0,0.35-0.01,0.5-0.03
		c0.31,0.43,0.65,0.88,1.02,1.3c0.03,0.03,0.21,0.07,0.32,0.1l0.36,0.08l0.04-0.14c-0.3-0.12-0.52-0.42-0.7-0.65l-0.62-0.8
		c0.32-0.23,0.59-0.58,0.58-0.98c-0.01-0.56-0.46-0.8-0.94-0.79l-1.55,0.03l0,0.16l0.49,0.07l0.05,2.82L36.62,4.96z"/>
	<path class="st0" d="M41.24,2.01l0.47-0.05l0.01-0.16l-1.39-0.1l-0.01,0.16l0.46,0.11l0.97,3.17l0.19,0.01
		c0.36-0.82,0.98-2.21,1.38-3.01l0.33-0.06l0.01-0.16l-1.09-0.08l-0.01,0.16l0.46,0.11l-1.03,2.29L41.24,2.01z"/>
	<polygon class="st0" points="45.48,2.35 45.5,2.19 44.13,2.02 44.1,2.18 44.56,2.32 44.21,5.12 43.74,5.14 43.72,5.3 45.1,5.47 
		45.12,5.31 44.67,5.17 45.01,2.38 	"/>
	<path class="st0" d="M49.33,3.07c-0.35-0.18-0.89-0.37-1.22-0.44c-1.17-0.25-1.93,0.23-2.15,1.27c-0.26,1.23,0.45,1.89,1.5,2.11
		c0.3,0.06,0.63,0.09,0.98,0.08l0.47-0.55l-0.1-0.12c-0.34,0.37-0.77,0.5-1.25,0.4c-0.86-0.18-1.31-1.07-1.11-2.02
		c0.18-0.86,0.76-1.13,1.59-0.96c0.88,0.19,1.04,0.61,1,1.04l0.16,0.03L49.33,3.07z"/>
	<path class="st0" d="M51.22,3.86l0.99,0.34l-0.03,0.48l0.14,0.05l0.17-0.71l-2.06-0.71l-0.05,0.15l0.41,0.23l-0.92,2.66l-0.46-0.08
		l-0.05,0.15l2.27,0.78l0.45-0.7l-0.16-0.06l-0.35,0.42l-1.24-0.43l0.42-1.22l0.83,0.28L51.54,5.9l0.13,0.05
		c0.06-0.25,0.2-0.67,0.31-0.9l-0.13-0.05l-0.2,0.31l-0.82-0.28L51.22,3.86z"/>
	<path class="st0" d="M55.41,5.23c-0.2-0.11-0.38-0.28-0.59-0.38c-0.6-0.27-1.13-0.06-1.33,0.39c-0.49,1.1,1.06,1.5,0.73,2.24
		c-0.17,0.38-0.52,0.44-0.88,0.27c-0.19-0.08-0.48-0.33-0.5-0.55c0-0.15,0.03-0.36,0.09-0.6l-0.16-0.03L52.5,7.32
		c0.15,0.25,0.49,0.49,0.79,0.62C53.92,8.22,54.45,8,54.7,7.45c0.39-0.87-1.14-1.31-0.78-2.14c0.15-0.33,0.46-0.42,0.78-0.28
		c0.37,0.16,0.39,0.5,0.31,0.85l0.15,0.04L55.41,5.23z"/>
	<path class="st0" d="M56.95,7.9c0.1-0.21,0.02-0.46-0.18-0.56c-0.21-0.11-0.46-0.03-0.56,0.18c-0.1,0.21-0.02,0.46,0.18,0.56
		C56.59,8.19,56.84,8.1,56.95,7.9"/>
	<path class="st0" d="M62.12,9.27l0.09-0.13l-1.09-0.71l-0.09,0.14l0.34,0.32l-0.88,1.36c-0.14,0.21-0.37,0.56-0.64,0.65
		c-0.34,0.11-0.71-0.02-0.91-0.15c-0.61-0.4-0.59-0.94-0.19-1.52l0.93-1.44l0.43,0.19l0.09-0.13l-1.16-0.76l-0.09,0.13l0.35,0.32
		l-1.03,1.59c-0.41,0.6-0.33,1.28,0.5,1.82c0.89,0.58,1.56,0.25,2.06-0.52l0.86-1.33L62.12,9.27z"/>
	<path class="st0" d="M64.36,10.99c-0.16-0.16-0.28-0.37-0.46-0.52c-0.51-0.43-1.07-0.38-1.39,0.01c-0.77,0.92,0.61,1.74,0.09,2.35
		c-0.27,0.32-0.62,0.28-0.92,0.02c-0.15-0.13-0.37-0.45-0.32-0.67c0.03-0.14,0.12-0.34,0.25-0.55l-0.14-0.07L61,12.2
		c0.07,0.28,0.34,0.61,0.58,0.81c0.53,0.45,1.1,0.38,1.49-0.08c0.61-0.73-0.74-1.58-0.16-2.27c0.23-0.27,0.56-0.28,0.83-0.06
		c0.31,0.26,0.24,0.59,0.07,0.9l0.13,0.08L64.36,10.99z"/>
	<path class="st0" d="M65.33,14.72l-0.41,0.98l-0.38-0.27l-0.12,0.12l0.97,0.97l0.11-0.12l-0.23-0.34l1.29-3.13l-0.17-0.17
		l-3.08,1.34l-0.34-0.23l-0.11,0.11l0.84,0.84l0.11-0.12l-0.27-0.38l0.94-0.45L65.33,14.72z M65.96,13.21l-0.53,1.27l-0.71-0.71
		L65.96,13.21z"/>
	<path class="st0" d="M65.33,14.72l-0.41,0.98l-0.38-0.27l-0.12,0.12l0.97,0.97l0.11-0.12l-0.23-0.34l1.29-3.13l-0.17-0.17
		l-3.08,1.34l-0.34-0.23l-0.11,0.11l0.84,0.84l0.11-0.12l-0.27-0.38l0.94-0.45L65.33,14.72z M65.96,13.21l-0.53,1.27l-0.71-0.71
		L65.96,13.21z"/>
	<path class="st0" d="M71.56,14.67c0.51,2.69-1.58,4.74-3.61,6.33l-7.03,5.42c0,0-13.06,10.03-13.65,10.74c-0.29,0.35,0,0,0,0
		c-2,2.06-2.37,7.9-3.81,11.75c-1.3,2.75-2.79,3.16-8.03,3.06H29.3c-0.67-0.01-0.99,0.09-1.37,0.9l-0.64-0.04
		c-0.12-1.72,0.29-3.23,1.83-4.09c0.79-0.34,1.65-0.25,2.52-0.25c2.59,0,4.46,0,7.15,0c0.77-0.06,1.31-0.29,1.56-0.89
		c1.27-4.92,1.17-10.57,5.72-13.96L60.42,22.5c3.25-2.85,8.25-5.34,9.24-9.84C70.74,12.88,71.23,13.7,71.56,14.67"/>
	<path class="st0" d="M76.26,20.17c0.58,2.08-1.87,3.88-3.51,5.32l-8.73,6.93l-10.64,8.43c-1.8,1.61-1.78,4.3-2.21,6.63
		c-0.03,0.82,1.04,1.38,0.51,2.29c-0.93,1.57-2,2.23-1.45,2.96c0.42,0.57,2.85-0.02,1.81,1.83c-0.18,0.98,1.89,0.09,0.82,0.89
		c-0.34,0.62,0.07,0.9,0.52,0.94c0.61,0.25-0.43,1.36,0.12,2.13c1.69,2.1,7.65-0.88,8.03,2.81c0.22,4.08-8.27,3.7-6.13,8.96
		c0.48,1.06,1.57,1.47,2.62,1.58c0.45,0.02,0.9-0.04,1.68-0.17l0.19,0.41c0,0-0.26,0.26-1.01,0.75c-1.53,0.95-4.33,1.93-6.08,0.78
		c-1.16-0.86-1.69-1.95-1.72-3.28c0.13-3.45,4.2-3.86,5.82-6.52c0.3-0.46,0.23-1.27-0.1-1.71c-1.26-1.79-3.67-1.36-5.72-1.31
		c-0.89-0.03-1.59-0.42-1.71-1.31c-0.1-0.9,0.4-1.38,0.08-1.78c-0.31-0.33-0.85-0.3-0.99-0.73c-0.07-0.22-0.01-0.36,0.27-0.65
		c0.8-0.51-1.53-0.12-0.71-1.33c0.23-0.18,0.3-0.43,0.24-0.73c-0.48-0.9-1.92,0-2.25-1.05c-0.25-1.27,3.34-3.02,1.42-5.05
		c0.01-0.06-0.04-0.17-0.05-0.24c-0.02-1.1,0.92-5.41,1.98-7.81c0.61-1.28,2.1-2.25,3.21-3.21l17.67-13.85
		c1.81-1.46,3.72-2.87,4.02-5.22C75.4,18.23,76.03,19.21,76.26,20.17"/>
	<path class="st0" d="M73.34,29.71c0.37,1.27,0.28,3.1-0.83,4.12l-1.76,1.5l-11.66,9.13c-1.18,1.19-1.21,3.03-0.88,4.61
		c0.62,1-1.1,2.12-0.32,2.62c0.27,0.13,0.76-0.01,0.94,0.34c0.32,0.45-0.31,0.94,0.27,1.16c0.22,0.03,0.38,0.03,0.51-0.01
		c0.49,0.05-0.6,0.53-0.03,1.01c1.88,0.21-0.29,2.5,2.43,1.91c2.67-0.6,5.27-1.99,8.23-1.31c2.61,0.5,4.91,2.05,7.83,1.51l0.36-0.1
		c0.01,0.07-0.16,0.3-0.16,0.3c-1.8,2.36-4,4.02-7.41,3.18c-2.23-0.55-4.29-3.41-7.85-2.37c-1.82,0.52-4.7,1.05-5.92,0.3
		c-0.93-0.62-0.11-1.41-0.38-2.07c-0.19-0.46-0.5-0.07-0.72-0.46c-0.18-0.33,0.51-0.61,0.12-0.79c-0.2-0.06-0.53-0.08-0.64-0.18
		c-0.45-0.41,0.67-1.26-0.51-1.44c-0.55-0.12-1.3-0.18-1.37-0.59c-0.36-0.75,1.99-1.86,0.88-3.7c-0.27-0.44,0.09-3.61,1.31-5.41
		c0.86-1.28,2.96-2.62,2.96-2.62l12.4-9.64c0.85-0.71,1.25-1.02,1.61-1.71C72.98,28.54,73.3,29.55,73.34,29.71"/>
	<path class="st0" d="M36.82,56.56c4.47,1.72,9.77,4,14.24,6.78c0.86,0.58,1.24,1.67,0.9,2.71c-1.24,2.85-6.42,3.84-4.82,7.83
		c0.55,1.42,1.87,2.52,3.41,2.61c0.31,0.04,0.71-0.03,1.33-0.23l0.38,0.54c-0.74,0.64-1.08,0.85-1.48,1.11
		c-0.92,0.6-2.35,1.21-4.34,0.88c-1.16-0.28-2.28-0.9-3.01-2.01c-0.7-1.06-0.82-2.77-0.2-3.92c1.15-2.26,4.48-3.55,4.82-5.42
		c0.17-1.04-0.86-1.97-1.71-2.51C39.88,61.2,33,58.5,25.86,56.41c-0.9-0.25-2.3-0.7-3.28,0.62l-0.48-0.37
		c0.07-1.2,0.72-2.36,1.83-2.94c1.95-0.88,4.64,0.13,6.14,0.58L36.82,56.56z"/>
	<path class="st1" d="M39.99,77.34c-0.2,0.02-0.39,0.02-0.59,0.01c-0.98-0.02-1.6-0.48-1.58-1.57c0.02-0.9,0.57-1.38,1.38-1.36
		c0.3,0,0.54,0.05,0.84,0.1L39.99,77.34z M40.97,74.26l-1.7-0.03c-1.07-0.02-1.94,0.47-1.96,1.72c-0.02,1.19,0.85,1.56,1.84,1.58
		l1.76,0.03l0-0.16l-0.46-0.09l0.05-2.82l0.46-0.07L40.97,74.26z"/>
	<path class="st0" d="M39.99,77.34c-0.2,0.02-0.39,0.02-0.59,0.01c-0.98-0.02-1.6-0.48-1.58-1.57c0.02-0.9,0.57-1.38,1.38-1.36
		c0.3,0,0.54,0.05,0.84,0.1L39.99,77.34z M40.97,74.26l-1.7-0.03c-1.07-0.02-1.94,0.47-1.96,1.72c-0.02,1.19,0.85,1.56,1.84,1.58
		l1.76,0.03l0-0.16l-0.46-0.09l0.05-2.82l0.46-0.07L40.97,74.26z"/>
	<path class="st0" d="M39.99,77.34c-0.2,0.02-0.39,0.02-0.59,0.01c-0.98-0.02-1.6-0.48-1.58-1.57c0.02-0.9,0.57-1.38,1.38-1.36
		c0.3,0,0.54,0.05,0.84,0.1L39.99,77.34z M40.97,74.26l-1.7-0.03c-1.07-0.02-1.94,0.47-1.96,1.72c-0.02,1.19,0.85,1.56,1.84,1.58
		l1.76,0.03l0-0.16l-0.46-0.09l0.05-2.82l0.46-0.07L40.97,74.26z"/>
	<path class="st0" d="M35.46,77.02l-1.04-0.13l-0.07-0.48L34.2,76.4l-0.02,0.73l2.16,0.27l0.02-0.16l-0.45-0.13l0.34-2.8l0.47-0.02
		l0.02-0.16l-2.38-0.29l-0.29,0.77l0.17,0.02l0.25-0.49l1.3,0.16l-0.16,1.28l-0.87-0.11l-0.04-0.37l-0.14-0.02
		c0,0.26-0.06,0.7-0.12,0.95l0.14,0.02l0.13-0.34l0.86,0.11L35.46,77.02z"/>
	<path class="st0" d="M35.46,77.02l-1.04-0.13l-0.07-0.48L34.2,76.4l-0.02,0.73l2.16,0.27l0.02-0.16l-0.45-0.13l0.34-2.8l0.47-0.02
		l0.02-0.16l-2.38-0.29l-0.29,0.77l0.17,0.02l0.25-0.49l1.3,0.16l-0.16,1.28l-0.87-0.11l-0.04-0.37l-0.14-0.02
		c0,0.26-0.06,0.7-0.12,0.95l0.14,0.02l0.13-0.34l0.86,0.11L35.46,77.02z"/>
	<path class="st0" d="M33.62,73.88l0.03-0.16l-1.45-0.31l-0.03,0.16l0.5,0.19l-0.59,2.8c-0.12-0.01-0.24-0.03-0.36-0.06
		c-0.41-0.09-0.67-0.36-0.6-0.86c0.05-0.37,0.26-0.83,0.89-0.7c0.08,0.02,0.15,0.05,0.22,0.08L32.25,75l0.03-0.13
		c-0.1-0.04-0.2-0.08-0.31-0.1c-0.63-0.14-1.2,0.22-1.34,0.86c-0.14,0.64,0.34,0.91,0.93,1.03l1.41,0.3L33,76.79l-0.46-0.18
		l0.59-2.76L33.62,73.88z"/>
	<path class="st0" d="M33.62,73.88l0.03-0.16l-1.45-0.31l-0.03,0.16l0.5,0.19l-0.59,2.8c-0.12-0.01-0.24-0.03-0.36-0.06
		c-0.41-0.09-0.67-0.36-0.6-0.86c0.05-0.37,0.26-0.83,0.89-0.7c0.08,0.02,0.15,0.05,0.22,0.08L32.25,75l0.03-0.13
		c-0.1-0.04-0.2-0.08-0.31-0.1c-0.63-0.14-1.2,0.22-1.34,0.86c-0.14,0.64,0.34,0.91,0.93,1.03l1.41,0.3L33,76.79l-0.46-0.18
		l0.59-2.76L33.62,73.88z"/>
	<path class="st1" d="M28.42,73.61l-0.06-1.06l0.46,0.08l0.05-0.15l-1.29-0.44l-0.05,0.15l0.35,0.21l0.21,3.38l0.23,0.08l2.19-2.56
		l0.41,0.06l0.05-0.15l-1.12-0.38l-0.05,0.15l0.41,0.23L29.55,74L28.42,73.61z M28.52,75.24l-0.08-1.37l0.95,0.33L28.52,75.24z"/>
	<path class="st0" d="M28.42,73.61l-0.06-1.06l0.46,0.08l0.05-0.15l-1.29-0.44l-0.05,0.15l0.35,0.21l0.21,3.38l0.23,0.08l2.19-2.56
		l0.41,0.06l0.05-0.15l-1.12-0.38l-0.05,0.15l0.41,0.23L29.55,74L28.42,73.61z M28.52,75.24l-0.08-1.37l0.95,0.33L28.52,75.24z"/>
	<path class="st0" d="M28.42,73.61l-0.06-1.06l0.46,0.08l0.05-0.15l-1.29-0.44l-0.05,0.15l0.35,0.21l0.21,3.38l0.23,0.08l2.19-2.56
		l0.41,0.06l0.05-0.15l-1.12-0.38l-0.05,0.15l0.41,0.23L29.55,74L28.42,73.61z M28.52,75.24l-0.08-1.37l0.95,0.33L28.52,75.24z"/>
	<path class="st1" d="M25.02,74.38c-0.08-0.01-0.16-0.04-0.24-0.08c-0.49-0.22-0.61-0.6-0.4-1.08c0.27-0.61,0.53-0.52,1.07-0.28
		c0.06,0.03,0.13,0.06,0.18,0.08L25.02,74.38z M27.09,72.08l0.06-0.15l-1.29-0.58l-0.06,0.15l0.39,0.26l-0.47,1.06
		c-0.16-0.07-0.32-0.14-0.46-0.19c-0.09-0.52-0.22-1.08-0.38-1.61c-0.01-0.04-0.16-0.15-0.25-0.22l-0.29-0.23l-0.1,0.11
		c0.22,0.23,0.29,0.6,0.36,0.89l0.23,0.99c-0.39,0.07-0.77,0.28-0.94,0.65c-0.23,0.51,0.08,0.92,0.51,1.11l1.42,0.63l0.06-0.15
		l-0.41-0.27l1.15-2.57L27.09,72.08z"/>
	<path class="st0" d="M25.02,74.38c-0.08-0.01-0.16-0.04-0.24-0.08c-0.49-0.22-0.61-0.6-0.4-1.08c0.27-0.61,0.53-0.52,1.07-0.28
		c0.06,0.03,0.13,0.06,0.18,0.08L25.02,74.38z M27.09,72.08l0.06-0.15l-1.29-0.58l-0.06,0.15l0.39,0.26l-0.47,1.06
		c-0.16-0.07-0.32-0.14-0.46-0.19c-0.09-0.52-0.22-1.08-0.38-1.61c-0.01-0.04-0.16-0.15-0.25-0.22l-0.29-0.23l-0.1,0.11
		c0.22,0.23,0.29,0.6,0.36,0.89l0.23,0.99c-0.39,0.07-0.77,0.28-0.94,0.65c-0.23,0.51,0.08,0.92,0.51,1.11l1.42,0.63l0.06-0.15
		l-0.41-0.27l1.15-2.57L27.09,72.08z"/>
	<path class="st0" d="M25.02,74.38c-0.08-0.01-0.16-0.04-0.24-0.08c-0.49-0.22-0.61-0.6-0.4-1.08c0.27-0.61,0.53-0.52,1.07-0.28
		c0.06,0.03,0.13,0.06,0.18,0.08L25.02,74.38z M27.09,72.08l0.06-0.15l-1.29-0.58l-0.06,0.15l0.39,0.26l-0.47,1.06
		c-0.16-0.07-0.32-0.14-0.46-0.19c-0.09-0.52-0.22-1.08-0.38-1.61c-0.01-0.04-0.16-0.15-0.25-0.22l-0.29-0.23l-0.1,0.11
		c0.22,0.23,0.29,0.6,0.36,0.89l0.23,0.99c-0.39,0.07-0.77,0.28-0.94,0.65c-0.23,0.51,0.08,0.92,0.51,1.11l1.42,0.63l0.06-0.15
		l-0.41-0.27l1.15-2.57L27.09,72.08z"/>
	<path class="st0" d="M23.24,70.28l0.08-0.14l-1.31-0.76l-0.08,0.14l0.41,0.33l-1.4,2.42l-0.52-0.3c-0.15-0.09-0.29-0.18-0.42-0.26
		l0.16-0.51l-0.15-0.09l-0.37,0.72l2.68,1.55l0.49-0.65l-0.14-0.08l-0.41,0.37c-0.13-0.06-0.27-0.13-0.42-0.22l-0.51-0.29l1.4-2.42
		L23.24,70.28z"/>
	<path class="st0" d="M23.24,70.28l0.08-0.14l-1.31-0.76l-0.08,0.14l0.41,0.33l-1.4,2.42l-0.52-0.3c-0.15-0.09-0.29-0.18-0.42-0.26
		l0.16-0.51l-0.15-0.09l-0.37,0.72l2.68,1.55l0.49-0.65l-0.14-0.08l-0.41,0.37c-0.13-0.06-0.27-0.13-0.42-0.22l-0.51-0.29l1.4-2.42
		L23.24,70.28z"/>
	<polygon class="st0" points="15.58,68.78 15.49,68.91 16.3,69.5 18.56,68.14 17.98,70.72 18.81,71.32 18.9,71.19 18.55,70.83 
		20.43,68.72 20.8,68.89 20.9,68.76 19.99,68.11 19.9,68.24 20.21,68.56 18.5,70.5 18.5,70.51 18.49,70.5 19.16,67.53 19.12,67.5 
		16.48,69.11 16.47,69.11 16.46,69.11 17.82,66.82 18.24,67.03 18.33,66.9 17.23,66.1 17.13,66.22 17.44,66.55 16.01,68.99 	"/>
	<polygon class="st0" points="15.58,68.78 15.49,68.91 16.3,69.5 18.56,68.14 17.98,70.72 18.81,71.32 18.9,71.19 18.55,70.83 
		20.43,68.72 20.8,68.89 20.9,68.76 19.99,68.11 19.9,68.24 20.21,68.56 18.5,70.5 18.5,70.51 18.49,70.5 19.16,67.53 19.12,67.5 
		16.48,69.11 16.47,69.11 16.46,69.11 17.82,66.82 18.24,67.03 18.33,66.9 17.23,66.1 17.13,66.22 17.44,66.55 16.01,68.99 	"/>
	<path class="st0" d="M14.04,67.21l-0.74-0.74l0.24-0.42l-0.1-0.1l-0.47,0.56l1.54,1.54l0.11-0.11l-0.27-0.38l1.99-2l0.38,0.27
		l0.11-0.11l-1.7-1.7l-0.71,0.43l0.12,0.12l0.5-0.23l0.93,0.93l-0.91,0.91l-0.62-0.62l0.2-0.32l-0.1-0.1
		c-0.16,0.2-0.47,0.51-0.68,0.67l0.1,0.1l0.31-0.19l0.61,0.62L14.04,67.21z"/>
	<path class="st0" d="M14.04,67.21l-0.74-0.74l0.24-0.42l-0.1-0.1l-0.47,0.56l1.54,1.54l0.11-0.11l-0.27-0.38l1.99-2l0.38,0.27
		l0.11-0.11l-1.7-1.7l-0.71,0.43l0.12,0.12l0.5-0.23l0.93,0.93l-0.91,0.91l-0.62-0.62l0.2-0.32l-0.1-0.1
		c-0.16,0.2-0.47,0.51-0.68,0.67l0.1,0.1l0.31-0.19l0.61,0.62L14.04,67.21z"/>
	<path class="st0" d="M14.47,63.7l0.12-0.1l-0.78-0.93l-0.12,0.1l0.25,0.42l-1.9,1.59c0.1-0.76,0.44-3.2,0.5-3.67l-0.15-0.18
		l-2.36,1.99l-0.36-0.3l-0.12,0.1l0.77,0.92l0.12-0.1l-0.23-0.41l1.79-1.5l-0.48,3.43l0.56,0.66l0.12-0.1l-0.24-0.41l2.16-1.81
		L14.47,63.7z"/>
	<path class="st0" d="M14.47,63.7l0.12-0.1l-0.78-0.93l-0.12,0.1l0.25,0.42l-1.9,1.59c0.1-0.76,0.44-3.2,0.5-3.67l-0.15-0.18
		l-2.36,1.99l-0.36-0.3l-0.12,0.1l0.77,0.92l0.12-0.1l-0.23-0.41l1.79-1.5l-0.48,3.43l0.56,0.66l0.12-0.1l-0.24-0.41l2.16-1.81
		L14.47,63.7z"/>
	<path class="st0" d="M11.19,59.61l0.13-0.09l-0.85-1.25l-0.13,0.09l0.23,0.48L8.25,60.4l-0.33-0.5c-0.1-0.15-0.19-0.29-0.26-0.42
		l0.37-0.39l-0.1-0.15l-0.65,0.49L9.01,62l0.73-0.37l-0.09-0.14l-0.53,0.15c-0.09-0.11-0.19-0.24-0.28-0.38l-0.33-0.49l2.32-1.56
		L11.19,59.61z"/>
	<path class="st0" d="M11.19,59.61l0.13-0.09l-0.85-1.25l-0.13,0.09l0.23,0.48L8.25,60.4l-0.33-0.5c-0.1-0.15-0.19-0.29-0.26-0.42
		l0.37-0.39l-0.1-0.15l-0.65,0.49L9.01,62l0.73-0.37l-0.09-0.14l-0.53,0.15c-0.09-0.11-0.19-0.24-0.28-0.38l-0.33-0.49l2.32-1.56
		L11.19,59.61z"/>
	<path class="st1" d="M4.98,55.07c0.41,0.95,1.28,1.27,2.28,0.85c0.87-0.37,1.32-1.19,0.85-2.3c-0.4-0.94-1.26-1.3-2.14-0.93
		C4.97,53.12,4.51,53.96,4.98,55.07 M6.86,55.54c-0.79,0.34-1.43,0.13-1.71-0.52c-0.27-0.63,0.05-1.46,0.96-1.85
		c0.71-0.3,1.47-0.32,1.81,0.49C8.25,54.42,7.82,55.14,6.86,55.54"/>
	<path class="st0" d="M4.98,55.07c0.41,0.95,1.28,1.27,2.28,0.85c0.87-0.37,1.32-1.19,0.85-2.3c-0.4-0.94-1.26-1.3-2.14-0.93
		C4.97,53.12,4.51,53.96,4.98,55.07 M6.86,55.54c-0.79,0.34-1.43,0.13-1.71-0.52c-0.27-0.63,0.05-1.46,0.96-1.85
		c0.71-0.3,1.47-0.32,1.81,0.49C8.25,54.42,7.82,55.14,6.86,55.54"/>
	<path class="st0" d="M4.98,55.07c0.41,0.95,1.28,1.27,2.28,0.85c0.87-0.37,1.32-1.19,0.85-2.3c-0.4-0.94-1.26-1.3-2.14-0.93
		C4.97,53.12,4.51,53.96,4.98,55.07z M6.86,55.54c-0.79,0.34-1.43,0.13-1.71-0.52c-0.27-0.63,0.05-1.46,0.96-1.85
		c0.71-0.3,1.47-0.32,1.81,0.49C8.25,54.42,7.82,55.14,6.86,55.54z"/>
	<path class="st0" d="M5.37,50.01l-0.04-0.13c-0.23,0.11-0.65,0.24-0.91,0.29l0.04,0.13l0.37-0.02l0.29,0.9l-1.16,0.38l-0.33-1.02
		l0.43-0.26l-0.05-0.15l-0.7,0.29l0.7,2.15l0.15-0.05l-0.08-0.51l2.68-0.87L7,51.6l0.15-0.05l-0.46-1.41l-0.15,0.05l0.08,0.51
		l-1.27,0.41l-0.29-0.91L5.37,50.01z"/>
	<path class="st0" d="M5.37,50.01l-0.04-0.13c-0.23,0.11-0.65,0.24-0.91,0.29l0.04,0.13l0.37-0.02l0.29,0.9l-1.16,0.38l-0.33-1.02
		l0.43-0.26l-0.05-0.15l-0.7,0.29l0.7,2.15l0.15-0.05l-0.08-0.51l2.68-0.87L7,51.6l0.15-0.05l-0.46-1.41l-0.15,0.05l0.08,0.51
		l-1.27,0.41l-0.29-0.91L5.37,50.01z"/>
	<polygon class="st0" points="4.07,46.33 3.74,44.49 5.08,44.25 5.24,44.69 5.4,44.66 5.16,43.3 5,43.32 5,43.79 2.23,44.28 
		2.07,43.84 1.91,43.87 2.15,45.24 2.31,45.21 2.31,44.74 3.51,44.53 3.83,46.37 2.63,46.58 2.47,46.14 2.31,46.17 2.55,47.54 
		2.71,47.51 2.71,47.04 5.49,46.55 5.65,46.99 5.8,46.96 5.56,45.59 5.41,45.62 5.41,46.09 	"/>
	<polygon class="st0" points="4.07,46.33 3.74,44.49 5.08,44.25 5.24,44.69 5.4,44.66 5.16,43.3 5,43.32 5,43.79 2.23,44.28 
		2.07,43.84 1.91,43.87 2.15,45.24 2.31,45.21 2.31,44.74 3.51,44.53 3.83,46.37 2.63,46.58 2.47,46.14 2.31,46.17 2.55,47.54 
		2.71,47.51 2.71,47.04 5.49,46.55 5.65,46.99 5.8,46.96 5.56,45.59 5.41,45.62 5.41,46.09 	"/>
	<path class="st0" d="M2.1,42.08l-0.07-1.04l0.45-0.16l-0.01-0.15l-0.72,0.12l0.15,2.17l0.16-0.01l0.05-0.47l2.81-0.2l0.11,0.46
		l0.16-0.01l-0.17-2.4l-0.81-0.14l0.01,0.17l0.53,0.16l0.09,1.31l-1.29,0.09l-0.06-0.87L3.85,41l-0.01-0.14
		c-0.25,0.05-0.7,0.08-0.95,0.07l0.01,0.14l0.36,0.06L3.31,42L2.1,42.08z"/>
	<path class="st0" d="M2.1,42.08l-0.07-1.04l0.45-0.16l-0.01-0.15l-0.72,0.12l0.15,2.17l0.16-0.01l0.05-0.47l2.81-0.2l0.11,0.46
		l0.16-0.01l-0.17-2.4l-0.81-0.14l0.01,0.17l0.53,0.16l0.09,1.31l-1.29,0.09l-0.06-0.87L3.85,41l-0.01-0.14
		c-0.25,0.05-0.7,0.08-0.95,0.07l0.01,0.14l0.36,0.06L3.31,42L2.1,42.08z"/>
	<path class="st1" d="M3.85,37.52l0.99-0.39l0.07,0.46l0.16,0l0.02-1.37l-0.16,0l-0.09,0.4L1.7,37.87l0,0.24L4.8,39.4l0.07,0.4
		l0.16,0l0.02-1.18l-0.16,0L4.8,39.08l-0.98-0.37L3.85,37.52z M2.33,38.11l1.28-0.5l-0.02,1.01L2.33,38.11z"/>
	<path class="st0" d="M3.85,37.52l0.99-0.39l0.07,0.46l0.16,0l0.02-1.37l-0.16,0l-0.09,0.4L1.7,37.87l0,0.24L4.8,39.4l0.07,0.4
		l0.16,0l0.02-1.18l-0.16,0L4.8,39.08l-0.98-0.37L3.85,37.52z M2.33,38.11l1.28-0.5l-0.02,1.01L2.33,38.11z"/>
	<path class="st0" d="M3.85,37.52l0.99-0.39l0.07,0.46l0.16,0l0.02-1.37l-0.16,0l-0.09,0.4L1.7,37.87l0,0.24L4.8,39.4l0.07,0.4
		l0.16,0l0.02-1.18l-0.16,0L4.8,39.08l-0.98-0.37L3.85,37.52z M2.33,38.11l1.28-0.5l-0.02,1.01L2.33,38.11z"/>
	<polygon class="st0" points="5.21,35.72 5.62,33.4 4.74,33.03 4.71,33.19 5.29,33.57 5.09,34.75 2.36,34.27 2.36,33.8 2.2,33.78 
		1.96,35.14 2.12,35.17 2.28,34.73 5.05,35.22 5.05,35.69 	"/>
	<polygon class="st0" points="5.21,35.72 5.62,33.4 4.74,33.03 4.71,33.19 5.29,33.57 5.09,34.75 2.36,34.27 2.36,33.8 2.2,33.78 
		1.96,35.14 2.12,35.17 2.28,34.73 5.05,35.22 5.05,35.69 	"/>
	<path class="st0" d="M5.65,32.38l0.16,0.04l0.37-1.47l-0.16-0.04L5.81,31.4L3.1,30.73l0.14-0.58c0.04-0.17,0.09-0.33,0.14-0.48
		l0.54,0.02l0.04-0.17l-0.8-0.16l-0.75,3.01l0.76,0.29l0.04-0.16L2.75,32.2c0.03-0.14,0.05-0.3,0.1-0.46l0.14-0.57l2.71,0.68
		L5.65,32.38z"/>
	<path class="st0" d="M5.65,32.38l0.16,0.04l0.37-1.47l-0.16-0.04L5.81,31.4L3.1,30.73l0.14-0.58c0.04-0.17,0.09-0.33,0.14-0.48
		l0.54,0.02l0.04-0.17l-0.8-0.16l-0.75,3.01l0.76,0.29l0.04-0.16L2.75,32.2c0.03-0.14,0.05-0.3,0.1-0.46l0.14-0.57l2.71,0.68
		L5.65,32.38z"/>
	<polygon class="st0" points="5.27,28.33 5.88,26.56 7.17,27.01 7.09,27.47 7.25,27.52 7.7,26.21 7.54,26.16 7.32,26.57 4.66,25.65 
		4.73,25.19 4.58,25.13 4.13,26.45 4.28,26.5 4.5,26.09 5.66,26.49 5.05,28.26 3.89,27.86 3.97,27.39 3.82,27.34 3.36,28.66 
		3.52,28.71 3.74,28.3 6.41,29.21 6.33,29.68 6.48,29.73 6.94,28.42 6.79,28.36 6.56,28.78 	"/>
	<polygon class="st0" points="5.27,28.33 5.88,26.56 7.17,27.01 7.09,27.47 7.25,27.52 7.7,26.21 7.54,26.16 7.32,26.57 4.66,25.65 
		4.73,25.19 4.58,25.13 4.13,26.45 4.28,26.5 4.5,26.09 5.66,26.49 5.05,28.26 3.89,27.86 3.97,27.39 3.82,27.34 3.36,28.66 
		3.52,28.71 3.74,28.3 6.41,29.21 6.33,29.68 6.48,29.73 6.94,28.42 6.79,28.36 6.56,28.78 	"/>
	<path class="st1" d="M7.96,23.35c-0.29-0.17-0.41-0.49-0.4-0.81c0.51-0.28,1.03-0.55,1.53-0.81c0.14,0.35,0.19,0.73,0.05,1.09
		C8.95,23.32,8.46,23.64,7.96,23.35 M7.21,22.23C7,22.25,6.86,22.27,6.67,22.16c-0.24-0.14-0.34-0.37-0.19-0.62
		c0.13-0.22,0.4-0.18,0.6-0.07c0.25,0.15,0.36,0.36,0.38,0.7L7.21,22.23z M7.43,22.57c-0.04,0.36-0.06,0.94,0.46,1.24
		c0.48,0.28,0.98,0.06,1.35-0.59c0.27-0.48,0.16-1.06-0.03-1.54c0.3-0.1,0.63-0.1,0.94-0.09l0.31-0.7l-0.12-0.07
		c-0.25,0.58-0.72,0.2-1.33,0.5C8.89,21.16,8.75,21,8.55,20.89c-0.48-0.28-0.85-0.11-0.87-0.07c-0.05,0.09-0.1,0.32-0.14,0.43
		l0.08,0.04C7.7,21.1,7.78,21,7.99,20.97c0.32-0.05,0.68,0.12,0.9,0.43c-0.17,0.08-0.33,0.16-0.49,0.25L7.57,22.1
		c0.02-0.35-0.03-0.69-0.36-0.88c-0.28-0.16-0.66-0.06-0.82,0.21c-0.25,0.43-0.09,0.85,0.28,1.06C6.9,22.63,7.18,22.66,7.43,22.57"
		/>
	<path class="st0" d="M7.96,23.35c-0.29-0.17-0.41-0.49-0.4-0.81c0.51-0.28,1.03-0.55,1.53-0.81c0.14,0.35,0.19,0.73,0.05,1.09
		C8.95,23.32,8.46,23.64,7.96,23.35 M7.21,22.23C7,22.25,6.86,22.27,6.67,22.16c-0.24-0.14-0.34-0.37-0.19-0.62
		c0.13-0.22,0.4-0.18,0.6-0.07c0.25,0.15,0.36,0.36,0.38,0.7L7.21,22.23z M7.43,22.57c-0.04,0.36-0.06,0.94,0.46,1.24
		c0.48,0.28,0.98,0.06,1.35-0.59c0.27-0.48,0.16-1.06-0.03-1.54c0.3-0.1,0.63-0.1,0.94-0.09l0.31-0.7l-0.12-0.07
		c-0.25,0.58-0.72,0.2-1.33,0.5C8.89,21.16,8.75,21,8.55,20.89c-0.48-0.28-0.85-0.11-0.87-0.07c-0.05,0.09-0.1,0.32-0.14,0.43
		l0.08,0.04C7.7,21.1,7.78,21,7.99,20.97c0.32-0.05,0.68,0.12,0.9,0.43c-0.17,0.08-0.33,0.16-0.49,0.25L7.57,22.1
		c0.02-0.35-0.03-0.69-0.36-0.88c-0.28-0.16-0.66-0.06-0.82,0.21c-0.25,0.43-0.09,0.85,0.28,1.06C6.9,22.63,7.18,22.66,7.43,22.57"
		/>
	<path class="st0" d="M7.96,23.35c-0.29-0.17-0.41-0.49-0.4-0.81c0.51-0.28,1.03-0.55,1.53-0.81c0.14,0.35,0.19,0.73,0.05,1.09
		C8.95,23.32,8.46,23.64,7.96,23.35z M7.21,22.23C7,22.25,6.86,22.27,6.67,22.16c-0.24-0.14-0.34-0.37-0.19-0.62
		c0.13-0.22,0.4-0.18,0.6-0.07c0.25,0.15,0.36,0.36,0.38,0.7L7.21,22.23z M7.43,22.57c-0.04,0.36-0.06,0.94,0.46,1.24
		c0.48,0.28,0.98,0.06,1.35-0.59c0.27-0.48,0.16-1.06-0.03-1.54c0.3-0.1,0.63-0.1,0.94-0.09l0.31-0.7l-0.12-0.07
		c-0.25,0.58-0.72,0.2-1.33,0.5C8.89,21.16,8.75,21,8.55,20.89c-0.48-0.28-0.85-0.11-0.87-0.07c-0.05,0.09-0.1,0.32-0.14,0.43
		l0.08,0.04C7.7,21.1,7.78,21,7.99,20.97c0.32-0.05,0.68,0.12,0.9,0.43c-0.17,0.08-0.33,0.16-0.49,0.25L7.57,22.1
		c0.02-0.35-0.03-0.69-0.36-0.88c-0.28-0.16-0.66-0.06-0.82,0.21c-0.25,0.43-0.09,0.85,0.28,1.06C6.9,22.63,7.18,22.66,7.43,22.57z"
		/>
	<polygon class="st0" points="10.84,17.7 11.99,16.23 13.06,17.07 12.84,17.48 12.97,17.58 13.82,16.48 13.69,16.38 13.35,16.7 
		11.13,14.97 11.35,14.55 11.22,14.45 10.37,15.55 10.49,15.65 10.84,15.33 11.8,16.08 10.65,17.56 9.69,16.81 9.91,16.39 
		9.78,16.29 8.93,17.39 9.06,17.49 9.4,17.17 11.62,18.9 11.4,19.32 11.53,19.42 12.38,18.32 12.26,18.22 11.91,18.54 	"/>
	<polygon class="st0" points="10.84,17.7 11.99,16.23 13.06,17.07 12.84,17.48 12.97,17.58 13.82,16.48 13.69,16.38 13.35,16.7 
		11.13,14.97 11.35,14.55 11.22,14.45 10.37,15.55 10.49,15.65 10.84,15.33 11.8,16.08 10.65,17.56 9.69,16.81 9.91,16.39 
		9.78,16.29 8.93,17.39 9.06,17.49 9.4,17.17 11.62,18.9 11.4,19.32 11.53,19.42 12.38,18.32 12.26,18.22 11.91,18.54 	"/>
	<path class="st0" d="M14.62,11.32l-0.12-0.11l-0.92,0.92l0.12,0.11l0.38-0.27l1.15,1.15c0.18,0.18,0.48,0.48,0.5,0.76
		c0.04,0.36-0.17,0.69-0.34,0.86c-0.51,0.51-1.04,0.38-1.52-0.12l-1.21-1.22l0.27-0.38l-0.11-0.12l-0.98,0.98l0.11,0.11l0.38-0.27
		l1.34,1.34c0.5,0.53,1.18,0.59,1.88-0.11c0.75-0.75,0.57-1.47-0.08-2.12l-1.12-1.12L14.62,11.32z"/>
	<path class="st0" d="M14.62,11.32l-0.12-0.11l-0.92,0.92l0.12,0.11l0.38-0.27l1.15,1.15c0.18,0.18,0.48,0.48,0.5,0.76
		c0.04,0.36-0.17,0.69-0.34,0.86c-0.51,0.51-1.04,0.38-1.52-0.12l-1.21-1.22l0.27-0.38l-0.11-0.12l-0.98,0.98l0.11,0.11l0.38-0.27
		l1.34,1.34c0.5,0.53,1.18,0.59,1.88-0.11c0.75-0.75,0.57-1.47-0.08-2.12l-1.12-1.12L14.62,11.32z"/>
	<polygon class="st0" points="18.72,8.17 18.63,8.04 17.82,8.65 18.46,11.2 16.17,9.89 15.35,10.51 15.44,10.64 15.89,10.4 
		17.36,12.82 17.09,13.13 17.19,13.26 18.08,12.59 17.98,12.46 17.58,12.66 16.22,10.46 16.22,10.45 16.23,10.45 18.87,11.96 
		18.91,11.93 18.15,8.93 18.14,8.92 18.15,8.91 19.94,10.88 19.62,11.22 19.72,11.35 20.81,10.53 20.71,10.4 20.31,10.6 18.39,8.52 
			"/>
	<polygon class="st0" points="18.72,8.17 18.63,8.04 17.82,8.65 18.46,11.2 16.17,9.89 15.35,10.51 15.44,10.64 15.89,10.4 
		17.36,12.82 17.09,13.13 17.19,13.26 18.08,12.59 17.98,12.46 17.58,12.66 16.22,10.46 16.22,10.45 16.23,10.45 18.87,11.96 
		18.91,11.93 18.15,8.93 18.14,8.92 18.15,8.91 19.94,10.88 19.62,11.22 19.72,11.35 20.81,10.53 20.71,10.4 20.31,10.6 18.39,8.52 
			"/>
	<path class="st1" d="M22.57,8.15l0.83,0.66l-0.37,0.29l0.08,0.14l1.19-0.66l-0.08-0.14l-0.39,0.12l-2.65-2.11l-0.21,0.12l0.44,3.33
		l-0.31,0.27l0.08,0.14l1.03-0.57l-0.08-0.14l-0.44,0.15l-0.17-1.03L22.57,8.15z M21.29,7.14L22.37,8l-0.88,0.49L21.29,7.14z"/>
	<path class="st0" d="M22.57,8.15l0.83,0.66l-0.37,0.29l0.08,0.14l1.19-0.66l-0.08-0.14l-0.39,0.12l-2.65-2.11l-0.21,0.12l0.44,3.33
		l-0.31,0.27l0.08,0.14l1.03-0.57l-0.08-0.14l-0.44,0.15l-0.17-1.03L22.57,8.15z M21.29,7.14L22.37,8l-0.88,0.49L21.29,7.14z"/>
	<path class="st0" d="M22.57,8.15l0.83,0.66l-0.37,0.29l0.08,0.14l1.19-0.66l-0.08-0.14l-0.39,0.12l-2.65-2.11l-0.21,0.12l0.44,3.33
		l-0.31,0.27l0.08,0.14l1.03-0.57l-0.08-0.14l-0.44,0.15l-0.17-1.03L22.57,8.15z M21.29,7.14L22.37,8l-0.88,0.49L21.29,7.14z"/>
	<path class="st0" d="M24.64,8.28l0.06,0.15l1.12-0.48L25.76,7.8l-0.48,0.12l-0.97-2.28c0.7,0.32,2.93,1.35,3.36,1.56L27.9,7.1
		l-1.21-2.84L27.09,4l-0.06-0.15l-1.1,0.47l0.06,0.15l0.46-0.11l0.91,2.15l-3.14-1.46l-0.8,0.34l0.06,0.15l0.46-0.11l1.1,2.6
		L24.64,8.28z"/>
	<path class="st0" d="M24.64,8.28l0.06,0.15l1.12-0.48L25.76,7.8l-0.48,0.12l-0.97-2.28c0.7,0.32,2.93,1.35,3.36,1.56L27.9,7.1
		l-1.21-2.84L27.09,4l-0.06-0.15l-1.1,0.47l0.06,0.15l0.46-0.11l0.91,2.15l-3.14-1.46l-0.8,0.34l0.06,0.15l0.46-0.11l1.1,2.6
		L24.64,8.28z"/>
	<path class="st0" d="M31.99,2.59c-0.23,0.02-0.47-0.01-0.7,0.04c-0.65,0.14-0.95,0.61-0.85,1.1c0.25,1.17,1.74,0.59,1.91,1.38
		c0.09,0.41-0.16,0.66-0.55,0.74c-0.2,0.04-0.58,0.02-0.72-0.15c-0.09-0.12-0.19-0.3-0.28-0.54l-0.15,0.07l0.22,0.76
		c0.27,0.12,0.68,0.11,1,0.04c0.68-0.14,0.98-0.64,0.85-1.22c-0.2-0.93-1.7-0.39-1.88-1.27c-0.08-0.35,0.12-0.62,0.47-0.69
		c0.39-0.08,0.61,0.18,0.75,0.5l0.15-0.06L31.99,2.59z"/>
	<path class="st0" d="M31.99,2.59c-0.23,0.02-0.47-0.01-0.7,0.04c-0.65,0.14-0.95,0.61-0.85,1.1c0.25,1.17,1.74,0.59,1.91,1.38
		c0.09,0.41-0.16,0.66-0.55,0.74c-0.2,0.04-0.58,0.02-0.72-0.15c-0.09-0.12-0.19-0.3-0.28-0.54l-0.15,0.07l0.22,0.76
		c0.27,0.12,0.68,0.11,1,0.04c0.68-0.14,0.98-0.64,0.85-1.22c-0.2-0.93-1.7-0.39-1.88-1.27c-0.08-0.35,0.12-0.62,0.47-0.69
		c0.39-0.08,0.61,0.18,0.75,0.5l0.15-0.06L31.99,2.59z"/>
	<path class="st0" d="M34.07,2.42l1.04-0.13l0.19,0.45l0.15-0.02l-0.16-0.71l-2.16,0.26l0.02,0.16l0.47,0.02l0.34,2.8L33.5,5.39
		l0.02,0.16l2.38-0.29l0.09-0.82l-0.17,0.02L35.7,4.99l-1.3,0.16l-0.16-1.28l0.87-0.11l0.13,0.35l0.14-0.02
		c-0.06-0.25-0.11-0.69-0.12-0.95l-0.14,0.02l-0.05,0.36l-0.86,0.1L34.07,2.42z"/>
	<path class="st0" d="M34.07,2.42l1.04-0.13l0.19,0.45l0.15-0.02l-0.16-0.71l-2.16,0.26l0.02,0.16l0.47,0.02l0.34,2.8L33.5,5.39
		l0.02,0.16l2.38-0.29l0.09-0.82l-0.17,0.02L35.7,4.99l-1.3,0.16l-0.16-1.28l0.87-0.11l0.13,0.35l0.14-0.02
		c-0.06-0.25-0.11-0.69-0.12-0.95l-0.14,0.02l-0.05,0.36l-0.86,0.1L34.07,2.42z"/>
	<path class="st1" d="M37.52,2.01c0.08-0.02,0.16-0.03,0.26-0.03c0.53-0.01,0.81,0.28,0.82,0.81c0.01,0.66-0.27,0.7-0.85,0.71
		c-0.07,0-0.15,0-0.2,0L37.52,2.01z M36.62,4.96l0,0.16l1.41-0.02l0-0.16l-0.46-0.07L37.55,3.7c0.18,0,0.35-0.01,0.5-0.03
		c0.31,0.43,0.65,0.88,1.02,1.3c0.03,0.03,0.21,0.07,0.32,0.1l0.36,0.08l0.04-0.14c-0.3-0.12-0.52-0.42-0.7-0.65l-0.62-0.8
		c0.32-0.23,0.59-0.58,0.58-0.98c-0.01-0.56-0.46-0.8-0.94-0.79l-1.55,0.03l0,0.16l0.49,0.07l0.05,2.82L36.62,4.96z"/>
	<path class="st0" d="M37.52,2.01c0.08-0.02,0.16-0.03,0.26-0.03c0.53-0.01,0.81,0.28,0.82,0.81c0.01,0.66-0.27,0.7-0.85,0.71
		c-0.07,0-0.15,0-0.2,0L37.52,2.01z M36.62,4.96l0,0.16l1.41-0.02l0-0.16l-0.46-0.07L37.55,3.7c0.18,0,0.35-0.01,0.5-0.03
		c0.31,0.43,0.65,0.88,1.02,1.3c0.03,0.03,0.21,0.07,0.32,0.1l0.36,0.08l0.04-0.14c-0.3-0.12-0.52-0.42-0.7-0.65l-0.62-0.8
		c0.32-0.23,0.59-0.58,0.58-0.98c-0.01-0.56-0.46-0.8-0.94-0.79l-1.55,0.03l0,0.16l0.49,0.07l0.05,2.82L36.62,4.96z"/>
	<path class="st0" d="M37.52,2.01c0.08-0.02,0.16-0.03,0.26-0.03c0.53-0.01,0.81,0.28,0.82,0.81c0.01,0.66-0.27,0.7-0.85,0.71
		c-0.07,0-0.15,0-0.2,0L37.52,2.01z M36.62,4.96l0,0.16l1.41-0.02l0-0.16l-0.46-0.07L37.55,3.7c0.18,0,0.35-0.01,0.5-0.03
		c0.31,0.43,0.65,0.88,1.02,1.3c0.03,0.03,0.21,0.07,0.32,0.1l0.36,0.08l0.04-0.14c-0.3-0.12-0.52-0.42-0.7-0.65l-0.62-0.8
		c0.32-0.23,0.59-0.58,0.58-0.98c-0.01-0.56-0.46-0.8-0.94-0.79l-1.55,0.03l0,0.16l0.49,0.07l0.05,2.82L36.62,4.96z"/>
	<path class="st0" d="M41.24,2.01l0.47-0.05l0.01-0.16l-1.39-0.1l-0.01,0.16l0.46,0.11l0.97,3.17l0.19,0.01
		c0.36-0.82,0.98-2.21,1.38-3.01l0.33-0.06l0.01-0.16l-1.09-0.08l-0.01,0.16l0.46,0.11l-1.03,2.29L41.24,2.01z"/>
	<path class="st0" d="M41.24,2.01l0.47-0.05l0.01-0.16l-1.39-0.1l-0.01,0.16l0.46,0.11l0.97,3.17l0.19,0.01
		c0.36-0.82,0.98-2.21,1.38-3.01l0.33-0.06l0.01-0.16l-1.09-0.08l-0.01,0.16l0.46,0.11l-1.03,2.29L41.24,2.01z"/>
	<polygon class="st0" points="45.48,2.35 45.5,2.19 44.13,2.02 44.1,2.18 44.56,2.32 44.21,5.12 43.74,5.14 43.72,5.3 45.1,5.47 
		45.12,5.31 44.67,5.17 45.01,2.38 	"/>
	<polygon class="st0" points="45.48,2.35 45.5,2.19 44.13,2.02 44.1,2.18 44.56,2.32 44.21,5.12 43.74,5.14 43.72,5.3 45.1,5.47 
		45.12,5.31 44.67,5.17 45.01,2.38 	"/>
	<path class="st0" d="M49.33,3.07c-0.35-0.18-0.89-0.37-1.22-0.44c-1.17-0.25-1.93,0.23-2.15,1.27c-0.26,1.23,0.45,1.89,1.5,2.11
		c0.3,0.06,0.63,0.09,0.98,0.08l0.47-0.55l-0.1-0.12c-0.34,0.37-0.77,0.5-1.25,0.4c-0.86-0.18-1.31-1.07-1.11-2.02
		c0.18-0.86,0.76-1.13,1.59-0.96c0.88,0.19,1.04,0.61,1,1.04l0.16,0.03L49.33,3.07z"/>
	<path class="st0" d="M49.33,3.07c-0.35-0.18-0.89-0.37-1.22-0.44c-1.17-0.25-1.93,0.23-2.15,1.27c-0.26,1.23,0.45,1.89,1.5,2.11
		c0.3,0.06,0.63,0.09,0.98,0.08l0.47-0.55l-0.1-0.12c-0.34,0.37-0.77,0.5-1.25,0.4c-0.86-0.18-1.31-1.07-1.11-2.02
		c0.18-0.86,0.76-1.13,1.59-0.96c0.88,0.19,1.04,0.61,1,1.04l0.16,0.03L49.33,3.07z"/>
	<path class="st0" d="M51.22,3.86l0.99,0.34l-0.03,0.48l0.14,0.05l0.17-0.71l-2.06-0.71l-0.05,0.15l0.41,0.23l-0.92,2.66l-0.46-0.08
		l-0.05,0.15l2.27,0.78l0.45-0.7l-0.16-0.06l-0.35,0.42l-1.24-0.43l0.42-1.22l0.83,0.28L51.54,5.9l0.13,0.05
		c0.06-0.25,0.2-0.67,0.31-0.9l-0.13-0.05l-0.2,0.31l-0.82-0.28L51.22,3.86z"/>
	<path class="st0" d="M51.22,3.86l0.99,0.34l-0.03,0.48l0.14,0.05l0.17-0.71l-2.06-0.71l-0.05,0.15l0.41,0.23l-0.92,2.66l-0.46-0.08
		l-0.05,0.15l2.27,0.78l0.45-0.7l-0.16-0.06l-0.35,0.42l-1.24-0.43l0.42-1.22l0.83,0.28L51.54,5.9l0.13,0.05
		c0.06-0.25,0.2-0.67,0.31-0.9l-0.13-0.05l-0.2,0.31l-0.82-0.28L51.22,3.86z"/>
	<path class="st0" d="M55.41,5.23c-0.2-0.11-0.38-0.28-0.59-0.38c-0.6-0.27-1.13-0.06-1.33,0.39c-0.49,1.1,1.06,1.5,0.73,2.24
		c-0.17,0.38-0.52,0.44-0.88,0.27c-0.19-0.08-0.48-0.33-0.5-0.55c0-0.15,0.03-0.36,0.09-0.6l-0.16-0.03L52.5,7.32
		c0.15,0.25,0.49,0.49,0.79,0.62C53.92,8.22,54.45,8,54.7,7.45c0.39-0.87-1.14-1.31-0.78-2.14c0.15-0.33,0.46-0.42,0.78-0.28
		c0.37,0.16,0.39,0.5,0.31,0.85l0.15,0.04L55.41,5.23z"/>
	<path class="st0" d="M55.41,5.23c-0.2-0.11-0.38-0.28-0.59-0.38c-0.6-0.27-1.13-0.06-1.33,0.39c-0.49,1.1,1.06,1.5,0.73,2.24
		c-0.17,0.38-0.52,0.44-0.88,0.27c-0.19-0.08-0.48-0.33-0.5-0.55c0-0.15,0.03-0.36,0.09-0.6l-0.16-0.03L52.5,7.32
		c0.15,0.25,0.49,0.49,0.79,0.62C53.92,8.22,54.45,8,54.7,7.45c0.39-0.87-1.14-1.31-0.78-2.14c0.15-0.33,0.46-0.42,0.78-0.28
		c0.37,0.16,0.39,0.5,0.31,0.85l0.15,0.04L55.41,5.23z"/>
	<path class="st0" d="M56.95,7.9c0.1-0.21,0.02-0.46-0.18-0.56c-0.21-0.11-0.46-0.03-0.56,0.18c-0.1,0.21-0.02,0.46,0.18,0.56
		C56.59,8.19,56.84,8.1,56.95,7.9"/>
	<path class="st0" d="M56.95,7.9c0.1-0.21,0.02-0.46-0.18-0.56c-0.21-0.11-0.46-0.03-0.56,0.18c-0.1,0.21-0.02,0.46,0.18,0.56
		C56.59,8.19,56.84,8.1,56.95,7.9z"/>
	<path class="st0" d="M62.12,9.27l0.09-0.13l-1.09-0.71l-0.09,0.14l0.34,0.32l-0.88,1.36c-0.14,0.21-0.37,0.56-0.64,0.65
		c-0.34,0.11-0.71-0.02-0.91-0.15c-0.61-0.4-0.59-0.94-0.19-1.52l0.93-1.44l0.43,0.19l0.09-0.13l-1.16-0.76l-0.09,0.13l0.35,0.32
		l-1.03,1.59c-0.41,0.6-0.33,1.28,0.5,1.82c0.89,0.58,1.56,0.25,2.06-0.52l0.86-1.33L62.12,9.27z"/>
	<path class="st0" d="M62.12,9.27l0.09-0.13l-1.09-0.71l-0.09,0.14l0.34,0.32l-0.88,1.36c-0.14,0.21-0.37,0.56-0.64,0.65
		c-0.34,0.11-0.71-0.02-0.91-0.15c-0.61-0.4-0.59-0.94-0.19-1.52l0.93-1.44l0.43,0.19l0.09-0.13l-1.16-0.76l-0.09,0.13l0.35,0.32
		l-1.03,1.59c-0.41,0.6-0.33,1.28,0.5,1.82c0.89,0.58,1.56,0.25,2.06-0.52l0.86-1.33L62.12,9.27z"/>
	<path class="st0" d="M64.36,10.99c-0.16-0.16-0.28-0.37-0.46-0.52c-0.51-0.43-1.07-0.38-1.39,0.01c-0.77,0.92,0.61,1.74,0.09,2.35
		c-0.27,0.32-0.62,0.28-0.92,0.02c-0.15-0.13-0.37-0.45-0.32-0.67c0.03-0.14,0.12-0.34,0.25-0.55l-0.14-0.07L61,12.2
		c0.07,0.28,0.34,0.61,0.58,0.81c0.53,0.45,1.1,0.38,1.49-0.08c0.61-0.73-0.74-1.58-0.16-2.27c0.23-0.27,0.56-0.28,0.83-0.06
		c0.31,0.26,0.24,0.59,0.07,0.9l0.13,0.08L64.36,10.99z"/>
	<path class="st0" d="M64.36,10.99c-0.16-0.16-0.28-0.37-0.46-0.52c-0.51-0.43-1.07-0.38-1.39,0.01c-0.77,0.92,0.61,1.74,0.09,2.35
		c-0.27,0.32-0.62,0.28-0.92,0.02c-0.15-0.13-0.37-0.45-0.32-0.67c0.03-0.14,0.12-0.34,0.25-0.55l-0.14-0.07L61,12.2
		c0.07,0.28,0.34,0.61,0.58,0.81c0.53,0.45,1.1,0.38,1.49-0.08c0.61-0.73-0.74-1.58-0.16-2.27c0.23-0.27,0.56-0.28,0.83-0.06
		c0.31,0.26,0.24,0.59,0.07,0.9l0.13,0.08L64.36,10.99z"/>
	<path class="st1" d="M65.33,14.72l-0.41,0.98l-0.38-0.27l-0.12,0.12l0.97,0.97l0.11-0.12l-0.23-0.34l1.29-3.13l-0.17-0.17
		l-3.08,1.34l-0.34-0.23l-0.11,0.11l0.84,0.84l0.11-0.12l-0.27-0.38l0.94-0.45L65.33,14.72z M65.96,13.21l-0.53,1.27l-0.71-0.71
		L65.96,13.21z"/>
	<path class="st0" d="M65.33,14.72l-0.41,0.98l-0.38-0.27l-0.12,0.12l0.97,0.97l0.11-0.12l-0.23-0.34l1.29-3.13l-0.17-0.17
		l-3.08,1.34l-0.34-0.23l-0.11,0.11l0.84,0.84l0.11-0.12l-0.27-0.38l0.94-0.45L65.33,14.72z M65.96,13.21l-0.53,1.27l-0.71-0.71
		L65.96,13.21z"/>
	<path class="st0" d="M65.33,14.72l-0.41,0.98l-0.38-0.27l-0.12,0.12l0.97,0.97l0.11-0.12l-0.23-0.34l1.29-3.13l-0.17-0.17
		l-3.08,1.34l-0.34-0.23l-0.11,0.11l0.84,0.84l0.11-0.12l-0.27-0.38l0.94-0.45L65.33,14.72z M65.96,13.21l-0.53,1.27l-0.71-0.71
		L65.96,13.21z"/>
	<path class="st0" d="M71.56,14.67c0.51,2.69-1.58,4.74-3.61,6.33l-7.03,5.42c0,0-13.06,10.03-13.65,10.74c-0.29,0.35,0,0,0,0
		c-2,2.06-2.37,7.9-3.81,11.75c-1.3,2.75-2.79,3.16-8.03,3.06H29.3c-0.67-0.01-0.99,0.09-1.37,0.9l-0.64-0.04
		c-0.12-1.72,0.29-3.23,1.83-4.09c0.79-0.34,1.65-0.25,2.52-0.25c2.59,0,4.46,0,7.15,0c0.77-0.06,1.31-0.29,1.56-0.89
		c1.27-4.92,1.17-10.57,5.72-13.96L60.42,22.5c3.25-2.85,8.25-5.34,9.24-9.84C70.74,12.88,71.23,13.7,71.56,14.67"/>
	<path class="st0" d="M71.56,14.67c0.51,2.69-1.58,4.74-3.61,6.33l-7.03,5.42c0,0-13.06,10.03-13.65,10.74c-0.29,0.35,0,0,0,0
		c-2,2.06-2.37,7.9-3.81,11.75c-1.3,2.75-2.79,3.16-8.03,3.06H29.3c-0.67-0.01-0.99,0.09-1.37,0.9l-0.64-0.04
		c-0.12-1.72,0.29-3.23,1.83-4.09c0.79-0.34,1.65-0.25,2.52-0.25c2.59,0,4.46,0,7.15,0c0.77-0.06,1.31-0.29,1.56-0.89
		c1.27-4.92,1.17-10.57,5.72-13.96L60.42,22.5c3.25-2.85,8.25-5.34,9.24-9.84C70.74,12.88,71.23,13.7,71.56,14.67z"/>
	<path class="st0" d="M76.26,20.17c0.58,2.08-1.87,3.88-3.51,5.32l-8.73,6.93l-10.64,8.43c-1.8,1.61-1.78,4.3-2.21,6.63
		c-0.03,0.82,1.04,1.38,0.51,2.29c-0.93,1.57-2,2.23-1.45,2.96c0.42,0.57,2.85-0.02,1.81,1.83c-0.18,0.98,1.89,0.09,0.82,0.89
		c-0.34,0.62,0.07,0.9,0.52,0.94c0.61,0.25-0.43,1.36,0.12,2.13c1.69,2.1,7.65-0.88,8.03,2.81c0.22,4.08-8.27,3.7-6.13,8.96
		c0.48,1.06,1.57,1.47,2.62,1.58c0.45,0.02,0.9-0.04,1.68-0.17l0.19,0.41c0,0-0.26,0.26-1.01,0.75c-1.53,0.95-4.33,1.93-6.08,0.78
		c-1.16-0.86-1.69-1.95-1.72-3.28c0.13-3.45,4.2-3.86,5.82-6.52c0.3-0.46,0.23-1.27-0.1-1.71c-1.26-1.79-3.67-1.36-5.72-1.31
		c-0.89-0.03-1.59-0.42-1.71-1.31c-0.1-0.9,0.4-1.38,0.08-1.78c-0.31-0.33-0.85-0.3-0.99-0.73c-0.07-0.22-0.01-0.36,0.27-0.65
		c0.8-0.51-1.53-0.12-0.71-1.33c0.23-0.18,0.3-0.43,0.24-0.73c-0.48-0.9-1.92,0-2.25-1.05c-0.25-1.27,3.34-3.02,1.42-5.05
		c0.01-0.06-0.04-0.17-0.05-0.24c-0.02-1.1,0.92-5.41,1.98-7.81c0.61-1.28,2.1-2.25,3.21-3.21l17.67-13.85
		c1.81-1.46,3.72-2.87,4.02-5.22C75.4,18.23,76.03,19.21,76.26,20.17"/>
	<path class="st0" d="M76.26,20.17c0.58,2.08-1.87,3.88-3.51,5.32l-8.73,6.93l-10.64,8.43c-1.8,1.61-1.78,4.3-2.21,6.63
		c-0.03,0.82,1.04,1.38,0.51,2.29c-0.93,1.57-2,2.23-1.45,2.96c0.42,0.57,2.85-0.02,1.81,1.83c-0.18,0.98,1.89,0.09,0.82,0.89
		c-0.34,0.62,0.07,0.9,0.52,0.94c0.61,0.25-0.43,1.36,0.12,2.13c1.69,2.1,7.65-0.88,8.03,2.81c0.22,4.08-8.27,3.7-6.13,8.96
		c0.48,1.06,1.57,1.47,2.62,1.58c0.45,0.02,0.9-0.04,1.68-0.17l0.19,0.41c0,0-0.26,0.26-1.01,0.75c-1.53,0.95-4.33,1.93-6.08,0.78
		c-1.16-0.86-1.69-1.95-1.72-3.28c0.13-3.45,4.2-3.86,5.82-6.52c0.3-0.46,0.23-1.27-0.1-1.71c-1.26-1.79-3.67-1.36-5.72-1.31
		c-0.89-0.03-1.59-0.42-1.71-1.31c-0.1-0.9,0.4-1.38,0.08-1.78c-0.31-0.33-0.85-0.3-0.99-0.73c-0.07-0.22-0.01-0.36,0.27-0.65
		c0.8-0.51-1.53-0.12-0.71-1.33c0.23-0.18,0.3-0.43,0.24-0.73c-0.48-0.9-1.92,0-2.25-1.05c-0.25-1.27,3.34-3.02,1.42-5.05
		c0.01-0.06-0.04-0.17-0.05-0.24c-0.02-1.1,0.92-5.41,1.98-7.81c0.61-1.28,2.1-2.25,3.21-3.21l17.67-13.85
		c1.81-1.46,3.72-2.87,4.02-5.22C75.4,18.23,76.03,19.21,76.26,20.17z"/>
	<path class="st0" d="M73.34,29.71c0.37,1.27,0.28,3.1-0.83,4.12l-1.76,1.5l-11.66,9.13c-1.18,1.19-1.21,3.03-0.88,4.61
		c0.62,1-1.1,2.12-0.32,2.62c0.27,0.13,0.76-0.01,0.94,0.34c0.32,0.45-0.31,0.94,0.27,1.16c0.22,0.03,0.38,0.03,0.51-0.01
		c0.49,0.05-0.6,0.53-0.03,1.01c1.88,0.21-0.29,2.5,2.43,1.91c2.67-0.6,5.27-1.99,8.23-1.31c2.61,0.5,4.91,2.05,7.83,1.51l0.36-0.1
		c0.01,0.07-0.16,0.3-0.16,0.3c-1.8,2.36-4,4.02-7.41,3.18c-2.23-0.55-4.29-3.41-7.85-2.37c-1.82,0.52-4.7,1.05-5.92,0.3
		c-0.93-0.62-0.11-1.41-0.38-2.07c-0.19-0.46-0.5-0.07-0.72-0.46c-0.18-0.33,0.51-0.61,0.12-0.79c-0.2-0.06-0.53-0.08-0.64-0.18
		c-0.45-0.41,0.67-1.26-0.51-1.44c-0.55-0.12-1.3-0.18-1.37-0.59c-0.36-0.75,1.99-1.86,0.88-3.7c-0.27-0.44,0.09-3.61,1.31-5.41
		c0.86-1.28,2.96-2.62,2.96-2.62l12.4-9.64c0.85-0.71,1.25-1.02,1.61-1.71C72.98,28.54,73.3,29.55,73.34,29.71"/>
	<path class="st0" d="M73.34,29.71c0.37,1.27,0.28,3.1-0.83,4.12l-1.76,1.5l-11.66,9.13c-1.18,1.19-1.21,3.03-0.88,4.61
		c0.62,1-1.1,2.12-0.32,2.62c0.27,0.13,0.76-0.01,0.94,0.34c0.32,0.45-0.31,0.94,0.27,1.16c0.22,0.03,0.38,0.03,0.51-0.01
		c0.49,0.05-0.6,0.53-0.03,1.01c1.88,0.21-0.29,2.5,2.43,1.91c2.67-0.6,5.27-1.99,8.23-1.31c2.61,0.5,4.91,2.05,7.83,1.51l0.36-0.1
		c0.01,0.07-0.16,0.3-0.16,0.3c-1.8,2.36-4,4.02-7.41,3.18c-2.23-0.55-4.29-3.41-7.85-2.37c-1.82,0.52-4.7,1.05-5.92,0.3
		c-0.93-0.62-0.11-1.41-0.38-2.07c-0.19-0.46-0.5-0.07-0.72-0.46c-0.18-0.33,0.51-0.61,0.12-0.79c-0.2-0.06-0.53-0.08-0.64-0.18
		c-0.45-0.41,0.67-1.26-0.51-1.44c-0.55-0.12-1.3-0.18-1.37-0.59c-0.36-0.75,1.99-1.86,0.88-3.7c-0.27-0.44,0.09-3.61,1.31-5.41
		c0.86-1.28,2.96-2.62,2.96-2.62l12.4-9.64c0.85-0.71,1.25-1.02,1.61-1.71C72.98,28.54,73.3,29.55,73.34,29.71z"/>
	<path class="st0" d="M36.82,56.56c4.47,1.72,9.77,4,14.24,6.78c0.86,0.58,1.24,1.67,0.9,2.71c-1.24,2.85-6.42,3.84-4.82,7.83
		c0.55,1.42,1.87,2.52,3.41,2.61c0.31,0.04,0.71-0.03,1.33-0.23l0.38,0.54c-0.74,0.64-1.08,0.85-1.48,1.11
		c-0.92,0.6-2.35,1.21-4.34,0.88c-1.16-0.28-2.28-0.9-3.01-2.01c-0.7-1.06-0.82-2.77-0.2-3.92c1.15-2.26,4.48-3.55,4.82-5.42
		c0.17-1.04-0.86-1.97-1.71-2.51C39.88,61.2,33,58.5,25.86,56.41c-0.9-0.25-2.3-0.7-3.28,0.62l-0.48-0.37
		c0.07-1.2,0.72-2.36,1.83-2.94c1.95-0.88,4.64,0.13,6.14,0.58L36.82,56.56z"/>
	<path class="st0" d="M36.82,56.56c4.47,1.72,9.77,4,14.24,6.78c0.86,0.58,1.24,1.67,0.9,2.71c-1.24,2.85-6.42,3.84-4.82,7.83
		c0.55,1.42,1.87,2.52,3.41,2.61c0.31,0.04,0.71-0.03,1.33-0.23l0.38,0.54c-0.74,0.64-1.08,0.85-1.48,1.11
		c-0.92,0.6-2.35,1.21-4.34,0.88c-1.16-0.28-2.28-0.9-3.01-2.01c-0.7-1.06-0.82-2.77-0.2-3.92c1.15-2.26,4.48-3.55,4.82-5.42
		c0.17-1.04-0.86-1.97-1.71-2.51C39.88,61.2,33,58.5,25.86,56.41c-0.9-0.25-2.3-0.7-3.28,0.62l-0.48-0.37
		c0.07-1.2,0.72-2.36,1.83-2.94c1.95-0.88,4.64,0.13,6.14,0.58L36.82,56.56z M73.35,29.71c0.37,1.27,0.28,3.1-0.83,4.12l-1.76,1.5
		l-11.66,9.13c-1.17,1.19-1.21,3.03-0.88,4.61c0.62,1-1.1,2.12-0.32,2.62c0.27,0.13,0.76-0.01,0.94,0.34
		c0.33,0.45-0.31,0.94,0.27,1.16c0.22,0.03,0.38,0.03,0.51-0.01c0.49,0.05-0.6,0.53-0.03,1.01c1.88,0.21-0.29,2.5,2.43,1.91
		c2.67-0.6,5.27-1.99,8.23-1.31c2.61,0.5,4.91,2.05,7.83,1.51l0.36-0.1c0.01,0.07-0.15,0.3-0.15,0.3c-1.8,2.36-3.99,4.02-7.41,3.18
		c-2.23-0.55-4.29-3.41-7.86-2.37c-1.82,0.52-4.7,1.05-5.92,0.3c-0.93-0.62-0.11-1.41-0.38-2.07c-0.19-0.46-0.5-0.07-0.72-0.46
		c-0.18-0.33,0.52-0.61,0.13-0.79c-0.2-0.06-0.53-0.08-0.64-0.18c-0.45-0.41,0.66-1.26-0.51-1.43c-0.55-0.12-1.29-0.18-1.37-0.59
		c-0.36-0.75,1.99-1.86,0.88-3.7c-0.27-0.44,0.09-3.61,1.31-5.41c0.86-1.28,2.96-2.62,2.96-2.62l12.4-9.64
		C71.98,30,72.39,29.7,72.74,29C72.98,28.54,73.3,29.55,73.35,29.71z M76.26,20.17c0.58,2.08-1.87,3.88-3.51,5.32l-8.73,6.93
		l-10.64,8.43c-1.8,1.61-1.78,4.3-2.21,6.63c-0.03,0.82,1.04,1.38,0.51,2.29c-0.93,1.57-2,2.23-1.46,2.96
		c0.42,0.57,2.85-0.02,1.81,1.83c-0.18,0.98,1.89,0.09,0.82,0.89c-0.34,0.61,0.07,0.9,0.51,0.94c0.62,0.25-0.43,1.36,0.12,2.13
		c1.69,2.1,7.65-0.88,8.03,2.81c0.22,4.08-8.27,3.7-6.13,8.96c0.48,1.06,1.58,1.47,2.62,1.58c0.45,0.02,0.9-0.04,1.68-0.17
		l0.19,0.41c0,0-0.26,0.26-1.01,0.75c-1.53,0.95-4.33,1.93-6.08,0.78c-1.15-0.86-1.69-1.95-1.72-3.28c0.13-3.45,4.2-3.86,5.82-6.52
		c0.3-0.46,0.23-1.27-0.1-1.71c-1.26-1.79-3.67-1.36-5.72-1.31c-0.89-0.03-1.59-0.42-1.71-1.31c-0.1-0.9,0.4-1.38,0.08-1.78
		c-0.31-0.33-0.85-0.3-0.99-0.73c-0.07-0.22,0-0.36,0.27-0.65c0.8-0.51-1.53-0.12-0.72-1.33c0.23-0.18,0.3-0.43,0.24-0.73
		c-0.48-0.9-1.92,0-2.25-1.05c-0.25-1.27,3.34-3.02,1.42-5.05c0.01-0.06-0.04-0.17-0.04-0.24c-0.02-1.1,0.92-5.41,1.98-7.81
		c0.6-1.28,2.1-2.25,3.21-3.21l17.67-13.85c1.81-1.46,3.73-2.87,4.02-5.22C75.41,18.23,76.02,19.21,76.26,20.17z M71.56,14.67
		c0.51,2.69-1.59,4.74-3.62,6.33l-7.03,5.42c0,0-13.06,10.03-13.65,10.74c-0.29,0.35,0,0,0,0c-2,2.06-2.37,7.9-3.81,11.75
		c-1.3,2.75-2.79,3.16-8.03,3.06h-6.13c-0.67-0.01-0.98,0.09-1.37,0.9l-0.64-0.04c-0.12-1.71,0.29-3.23,1.83-4.08
		c0.79-0.34,1.65-0.25,2.52-0.25c2.59,0,4.46,0,7.15,0c0.76-0.06,1.3-0.29,1.56-0.89c1.27-4.92,1.17-10.57,5.72-13.96L60.42,22.5
		c3.25-2.85,8.25-5.34,9.24-9.84C70.74,12.88,71.23,13.7,71.56,14.67z M65.33,14.72l-0.41,0.98l-0.38-0.27l-0.11,0.11l0.97,0.96
		l0.11-0.11l-0.23-0.34l1.29-3.13l-0.17-0.17l-3.08,1.34l-0.34-0.23l-0.11,0.12l0.84,0.83l0.11-0.11l-0.27-0.39l0.94-0.45
		L65.33,14.72z M65.96,13.21l-0.53,1.27l-0.71-0.71L65.96,13.21z M65.33,14.72l-0.41,0.98l-0.38-0.27l-0.11,0.11l0.97,0.96
		l0.11-0.11l-0.23-0.34l1.29-3.13l-0.17-0.17l-3.08,1.34l-0.34-0.23l-0.11,0.12l0.84,0.83l0.11-0.11l-0.27-0.39l0.94-0.45
		L65.33,14.72z M65.96,13.21l-0.53,1.27l-0.71-0.71L65.96,13.21z M64.36,10.99c-0.16-0.16-0.28-0.38-0.46-0.52
		c-0.51-0.43-1.07-0.37-1.39,0.01c-0.77,0.92,0.6,1.74,0.08,2.36c-0.27,0.32-0.62,0.27-0.92,0.02c-0.16-0.13-0.37-0.45-0.32-0.67
		c0.03-0.14,0.12-0.34,0.25-0.55l-0.14-0.07L61,12.2c0.07,0.28,0.34,0.6,0.58,0.81c0.53,0.45,1.1,0.38,1.49-0.08
		c0.61-0.73-0.74-1.57-0.16-2.27c0.23-0.27,0.56-0.28,0.83-0.06c0.31,0.26,0.23,0.59,0.07,0.9l0.14,0.08L64.36,10.99z M62.12,9.27
		l0.09-0.13l-1.1-0.71l-0.09,0.13l0.34,0.32l-0.88,1.36c-0.14,0.21-0.37,0.56-0.64,0.65c-0.34,0.11-0.71-0.02-0.91-0.15
		c-0.61-0.39-0.59-0.93-0.19-1.52l0.94-1.44l0.43,0.19l0.09-0.13l-1.16-0.76l-0.09,0.13l0.34,0.32l-1.03,1.59
		c-0.41,0.6-0.33,1.28,0.5,1.82c0.89,0.58,1.56,0.25,2.06-0.52l0.86-1.33L62.12,9.27z M56.95,7.9c0.11-0.2,0.02-0.45-0.18-0.56
		c-0.21-0.1-0.46-0.02-0.56,0.18c-0.1,0.21-0.02,0.45,0.18,0.56C56.6,8.19,56.85,8.1,56.95,7.9z M55.41,5.23
		c-0.2-0.11-0.38-0.28-0.59-0.38c-0.6-0.27-1.13-0.06-1.34,0.39c-0.49,1.1,1.06,1.5,0.73,2.24c-0.17,0.38-0.52,0.44-0.88,0.28
		c-0.18-0.08-0.48-0.33-0.49-0.55c-0.01-0.15,0.02-0.36,0.09-0.6l-0.16-0.03L52.5,7.32c0.15,0.25,0.49,0.49,0.79,0.62
		c0.64,0.28,1.16,0.06,1.41-0.49c0.39-0.87-1.15-1.31-0.78-2.14c0.15-0.33,0.46-0.42,0.78-0.28c0.37,0.16,0.39,0.5,0.32,0.85
		l0.15,0.04L55.41,5.23z M51.22,3.86l0.99,0.34l-0.03,0.48l0.14,0.05l0.17-0.71l-2.06-0.71l-0.05,0.15l0.41,0.23l-0.92,2.66
		l-0.46-0.08l-0.05,0.15l2.27,0.78l0.44-0.69l-0.16-0.06l-0.35,0.42l-1.24-0.43l0.42-1.22l0.83,0.28L51.54,5.9l0.13,0.05
		c0.06-0.25,0.2-0.67,0.31-0.9l-0.13-0.05l-0.2,0.31l-0.82-0.28L51.22,3.86z M49.33,3.06c-0.35-0.17-0.89-0.36-1.22-0.43
		c-1.17-0.25-1.93,0.23-2.15,1.27c-0.26,1.22,0.45,1.88,1.5,2.11c0.3,0.06,0.63,0.09,0.98,0.07l0.47-0.55l-0.1-0.12
		c-0.34,0.37-0.77,0.5-1.25,0.4c-0.86-0.18-1.31-1.07-1.11-2.02c0.18-0.86,0.76-1.13,1.59-0.96c0.88,0.19,1.04,0.61,1,1.04
		l0.16,0.03L49.33,3.06z M45.48,2.35l0.02-0.16l-1.38-0.17L44.1,2.18l0.45,0.14l-0.34,2.8l-0.47,0.02L43.72,5.3l1.38,0.17l0.02-0.16
		l-0.45-0.14l0.34-2.8L45.48,2.35z M41.24,2.01l0.47-0.05l0.01-0.16l-1.39-0.1l-0.01,0.16l0.46,0.11l0.97,3.17l0.19,0.02
		c0.36-0.82,0.98-2.21,1.38-3.01l0.33-0.06l0.01-0.16l-1.09-0.08l-0.01,0.16l0.46,0.11l-1.03,2.29L41.24,2.01z M37.52,2.01
		c0.08-0.02,0.16-0.03,0.25-0.03c0.53-0.01,0.81,0.28,0.82,0.81c0.01,0.66-0.27,0.7-0.85,0.71c-0.07,0-0.15,0-0.2,0L37.52,2.01z
		 M36.62,4.96l0,0.16l1.41-0.02l0-0.16l-0.46-0.07L37.55,3.7c0.18,0,0.35-0.01,0.5-0.03c0.31,0.43,0.65,0.88,1.02,1.3
		c0.03,0.03,0.21,0.07,0.32,0.1l0.36,0.08l0.04-0.14c-0.3-0.12-0.52-0.42-0.7-0.65l-0.62-0.8c0.32-0.23,0.59-0.58,0.58-0.98
		c-0.01-0.56-0.46-0.79-0.94-0.79l-1.55,0.03l0,0.16l0.49,0.07l0.05,2.82L36.62,4.96z M37.52,2.01c0.08-0.02,0.16-0.03,0.25-0.03
		c0.53-0.01,0.81,0.28,0.82,0.81c0.01,0.66-0.27,0.7-0.85,0.71c-0.07,0-0.15,0-0.2,0L37.52,2.01z M36.62,4.96l0,0.16l1.41-0.02
		l0-0.16l-0.46-0.07L37.55,3.7c0.18,0,0.35-0.01,0.5-0.03c0.31,0.43,0.65,0.88,1.02,1.3c0.03,0.03,0.21,0.07,0.32,0.1l0.36,0.08
		l0.04-0.14c-0.3-0.12-0.52-0.42-0.7-0.65l-0.62-0.8c0.32-0.23,0.59-0.58,0.58-0.98c-0.01-0.56-0.46-0.79-0.94-0.79l-1.55,0.03
		l0,0.16l0.49,0.07l0.05,2.82L36.62,4.96z M34.07,2.42l1.04-0.13l0.18,0.45l0.15-0.02l-0.15-0.71l-2.16,0.26l0.02,0.16l0.47,0.02
		l0.34,2.8L33.5,5.39l0.02,0.16l2.38-0.29L36,4.43l-0.17,0.02L35.7,4.99l-1.3,0.16l-0.16-1.28l0.87-0.11l0.13,0.35l0.14-0.02
		c-0.06-0.25-0.11-0.69-0.12-0.95l-0.14,0.02l-0.05,0.36l-0.86,0.1L34.07,2.42z M32,2.59c-0.23,0.02-0.47-0.01-0.7,0.04
		c-0.65,0.14-0.95,0.62-0.85,1.11c0.25,1.17,1.74,0.59,1.91,1.38c0.08,0.41-0.17,0.66-0.55,0.74c-0.2,0.04-0.58,0.02-0.72-0.15
		c-0.09-0.12-0.19-0.3-0.28-0.54l-0.15,0.07l0.21,0.75c0.27,0.12,0.69,0.11,1,0.04c0.68-0.14,0.98-0.64,0.85-1.22
		c-0.2-0.94-1.7-0.39-1.88-1.27c-0.08-0.35,0.12-0.62,0.47-0.69c0.39-0.08,0.61,0.18,0.75,0.5l0.15-0.06L32,2.59z M24.64,8.28
		l0.06,0.15l1.12-0.48L25.76,7.8l-0.48,0.11l-0.97-2.28c0.7,0.32,2.93,1.35,3.36,1.56L27.9,7.1l-1.21-2.84L27.09,4l-0.06-0.15
		l-1.1,0.47l0.06,0.15l0.46-0.11l0.91,2.15l-3.14-1.46l-0.8,0.34l0.06,0.15l0.46-0.11l1.1,2.59L24.64,8.28z M22.57,8.16l0.83,0.66
		l-0.37,0.29l0.08,0.14l1.2-0.66l-0.08-0.14l-0.39,0.12l-2.65-2.11l-0.21,0.12l0.44,3.34l-0.31,0.27l0.08,0.14l1.03-0.57l-0.08-0.14
		l-0.44,0.15l-0.17-1.03L22.57,8.16z M21.29,7.14L22.37,8l-0.88,0.49L21.29,7.14z M22.57,8.16l0.83,0.66l-0.37,0.29l0.08,0.14
		l1.2-0.66l-0.08-0.14l-0.39,0.12l-2.65-2.11l-0.21,0.12l0.44,3.34l-0.31,0.27l0.08,0.14l1.03-0.57l-0.08-0.14l-0.44,0.15
		l-0.17-1.03L22.57,8.16z M21.29,7.14L22.37,8l-0.88,0.49L21.29,7.14z M18.72,8.17l-0.1-0.13l-0.81,0.61l0.65,2.55l-2.29-1.31
		l-0.82,0.62l0.1,0.13l0.45-0.24l1.47,2.42l-0.27,0.31l0.1,0.13l0.89-0.67l-0.1-0.13l-0.4,0.2l-1.36-2.2l0-0.01l0.01-0.01l2.64,1.51
		l0.04-0.03l-0.77-3l-0.01-0.01l0.01-0.01l1.79,1.96l-0.32,0.34l0.1,0.13l1.09-0.82l-0.1-0.13l-0.4,0.2l-1.92-2.08L18.72,8.17z
		 M14.62,11.32l-0.11-0.11l-0.92,0.92l0.11,0.11l0.38-0.27l1.15,1.15c0.18,0.18,0.48,0.47,0.5,0.76c0.04,0.36-0.17,0.69-0.33,0.86
		c-0.51,0.51-1.04,0.38-1.52-0.13l-1.21-1.21l0.27-0.38l-0.11-0.12l-0.98,0.98l0.11,0.12l0.38-0.27l1.34,1.34
		c0.51,0.53,1.19,0.59,1.89-0.11c0.75-0.75,0.57-1.47-0.08-2.12l-1.12-1.12L14.62,11.32z M10.84,17.7l1.15-1.48l1.07,0.84
		l-0.22,0.41l0.13,0.1l0.85-1.09l-0.13-0.1l-0.35,0.32l-2.22-1.74l0.22-0.41l-0.13-0.1l-0.85,1.1l0.13,0.1l0.35-0.31l0.96,0.75
		l-1.15,1.48L9.69,16.8l0.22-0.41l-0.13-0.1l-0.85,1.09l0.13,0.1l0.35-0.32l2.22,1.74l-0.22,0.41l0.13,0.1l0.86-1.09l-0.13-0.1
		l-0.35,0.32L10.84,17.7z M7.96,23.35c-0.29-0.17-0.41-0.48-0.4-0.81c0.51-0.28,1.03-0.55,1.53-0.81c0.14,0.35,0.19,0.73,0.05,1.09
		C8.95,23.32,8.46,23.64,7.96,23.35z M7.21,22.23c-0.21,0.02-0.35,0.03-0.54-0.07c-0.24-0.14-0.34-0.37-0.19-0.62
		c0.13-0.22,0.4-0.18,0.6-0.07c0.25,0.14,0.36,0.35,0.38,0.69L7.21,22.23z M7.43,22.57c-0.04,0.36-0.06,0.94,0.46,1.24
		c0.48,0.28,0.98,0.06,1.35-0.59c0.27-0.48,0.16-1.05-0.03-1.54c0.3-0.11,0.63-0.1,0.95-0.09l0.31-0.7l-0.12-0.07
		c-0.25,0.58-0.72,0.2-1.33,0.5C8.89,21.16,8.75,21,8.55,20.89c-0.48-0.28-0.85-0.11-0.87-0.07c-0.05,0.09-0.1,0.32-0.14,0.43
		l0.08,0.04C7.7,21.1,7.78,21,7.99,20.97c0.32-0.05,0.68,0.12,0.9,0.43c-0.17,0.08-0.33,0.16-0.49,0.24L7.57,22.1
		c0.02-0.35-0.03-0.68-0.36-0.88c-0.28-0.16-0.66-0.06-0.82,0.21c-0.25,0.43-0.08,0.85,0.28,1.05C6.9,22.63,7.18,22.66,7.43,22.57z
		 M7.96,23.35c-0.29-0.17-0.41-0.48-0.4-0.81c0.51-0.28,1.03-0.55,1.53-0.81c0.14,0.35,0.19,0.73,0.05,1.09
		C8.95,23.32,8.46,23.64,7.96,23.35z M7.21,22.23c-0.21,0.02-0.35,0.03-0.54-0.07c-0.24-0.14-0.34-0.37-0.19-0.62
		c0.13-0.22,0.4-0.18,0.6-0.07c0.25,0.14,0.36,0.35,0.38,0.69L7.21,22.23z M7.43,22.57c-0.04,0.36-0.06,0.94,0.46,1.24
		c0.48,0.28,0.98,0.06,1.35-0.59c0.27-0.48,0.16-1.05-0.03-1.54c0.3-0.11,0.63-0.1,0.95-0.09l0.31-0.7l-0.12-0.07
		c-0.25,0.58-0.72,0.2-1.33,0.5C8.89,21.16,8.75,21,8.55,20.89c-0.48-0.28-0.85-0.11-0.87-0.07c-0.05,0.09-0.1,0.32-0.14,0.43
		l0.08,0.04C7.7,21.1,7.78,21,7.99,20.97c0.32-0.05,0.68,0.12,0.9,0.43c-0.17,0.08-0.33,0.16-0.49,0.24L7.57,22.1
		c0.02-0.35-0.03-0.68-0.36-0.88c-0.28-0.16-0.66-0.06-0.82,0.21c-0.25,0.43-0.08,0.85,0.28,1.05C6.9,22.63,7.18,22.66,7.43,22.57z
		 M5.27,28.33l0.61-1.77l1.29,0.44l-0.07,0.46l0.15,0.05l0.45-1.31l-0.15-0.05l-0.23,0.41l-2.66-0.92l0.07-0.46l-0.15-0.05
		l-0.45,1.31l0.15,0.05l0.23-0.41l1.15,0.39l-0.61,1.77l-1.15-0.4l0.08-0.46l-0.15-0.05l-0.45,1.31l0.15,0.05l0.23-0.41l2.66,0.92
		l-0.07,0.46l0.15,0.05l0.45-1.31l-0.15-0.05l-0.23,0.41L5.27,28.33z M5.65,32.38l0.16,0.04l0.36-1.47l-0.15-0.04L5.81,31.4
		L3.1,30.73l0.14-0.58c0.04-0.17,0.09-0.33,0.14-0.48l0.54,0.02l0.04-0.17l-0.79-0.15l-0.75,3l0.76,0.29l0.04-0.16L2.75,32.2
		c0.03-0.14,0.06-0.3,0.1-0.46l0.14-0.57l2.71,0.68L5.65,32.38z M5.21,35.72l0.41-2.31l-0.88-0.37l-0.03,0.16l0.58,0.38l-0.21,1.18
		l-2.73-0.48l0-0.47L2.2,33.78l-0.24,1.37l0.16,0.03l0.16-0.44l2.78,0.49l0,0.47L5.21,35.72z M3.85,37.52l0.99-0.39l0.07,0.46
		l0.16,0l0.02-1.37l-0.16,0l-0.09,0.4L1.7,37.87l0,0.24L4.8,39.4l0.07,0.4l0.16,0l0.02-1.18l-0.16,0L4.8,39.08l-0.98-0.37
		L3.85,37.52z M2.33,38.11l1.28-0.5l-0.02,1.01L2.33,38.11z M3.85,37.52l0.99-0.39l0.07,0.46l0.16,0l0.02-1.37l-0.16,0l-0.09,0.4
		L1.7,37.87l0,0.24L4.8,39.4l0.07,0.4l0.16,0l0.02-1.18l-0.16,0L4.8,39.08l-0.98-0.37L3.85,37.52z M2.33,38.11l1.28-0.5l-0.02,1.01
		L2.33,38.11z M2.1,42.08l-0.07-1.04l0.45-0.16l-0.01-0.15l-0.72,0.12l0.15,2.17l0.16-0.01l0.05-0.47l2.81-0.19l0.11,0.46l0.16-0.01
		l-0.17-2.4l-0.81-0.14l0.01,0.17l0.53,0.15l0.09,1.31l-1.29,0.09l-0.06-0.87L3.85,41l-0.01-0.14c-0.25,0.04-0.7,0.08-0.95,0.06
		l0.01,0.14l0.36,0.06L3.31,42L2.1,42.08z M4.07,46.33l-0.33-1.84l1.34-0.24l0.16,0.44l0.16-0.03L5.16,43.3L5,43.32l0,0.47
		l-2.78,0.49l-0.16-0.44l-0.16,0.03l0.24,1.37l0.16-0.03l0-0.47l1.2-0.21l0.32,1.84l-1.2,0.21l-0.16-0.44l-0.16,0.03l0.24,1.37
		l0.16-0.03l0-0.47l2.77-0.49l0.16,0.44l0.16-0.03l-0.24-1.37L5.4,45.62l0,0.47L4.07,46.33z M5.37,50.01l-0.04-0.13
		c-0.23,0.11-0.66,0.24-0.91,0.3l0.04,0.13l0.37-0.02l0.29,0.91l-1.16,0.38l-0.33-1.02l0.43-0.26l-0.05-0.15l-0.7,0.29l0.7,2.15
		l0.15-0.05l-0.08-0.51l2.68-0.87L7,51.6l0.15-0.05l-0.46-1.41l-0.15,0.05l0.08,0.51l-1.27,0.41l-0.29-0.91L5.37,50.01z M4.98,55.07
		c0.41,0.95,1.28,1.27,2.28,0.85c0.87-0.37,1.32-1.19,0.85-2.3c-0.4-0.94-1.27-1.3-2.14-0.93C4.97,53.12,4.51,53.96,4.98,55.07z
		 M6.86,55.54c-0.79,0.34-1.43,0.13-1.71-0.52c-0.27-0.63,0.05-1.46,0.96-1.85c0.71-0.3,1.47-0.32,1.81,0.49
		C8.25,54.43,7.82,55.14,6.86,55.54z M4.98,55.07c0.41,0.95,1.28,1.27,2.28,0.85c0.87-0.37,1.32-1.19,0.85-2.3
		c-0.4-0.94-1.27-1.3-2.14-0.93C4.97,53.12,4.51,53.96,4.98,55.07z M6.86,55.54c-0.79,0.34-1.43,0.13-1.71-0.52
		c-0.27-0.63,0.05-1.46,0.96-1.85c0.71-0.3,1.47-0.32,1.81,0.49C8.25,54.43,7.82,55.14,6.86,55.54z M11.19,59.61l0.13-0.09
		l-0.84-1.26l-0.13,0.09l0.23,0.48L8.25,60.4l-0.34-0.5c-0.1-0.15-0.19-0.29-0.26-0.42l0.37-0.39l-0.1-0.15l-0.65,0.49L9.01,62
		l0.73-0.37l-0.09-0.14l-0.53,0.15c-0.09-0.11-0.18-0.24-0.28-0.38l-0.33-0.49l2.32-1.56L11.19,59.61z M14.47,63.7l0.12-0.1
		l-0.78-0.93l-0.12,0.1l0.25,0.42l-1.9,1.59c0.1-0.76,0.44-3.2,0.51-3.67l-0.15-0.18l-2.36,1.98l-0.36-0.3l-0.12,0.1l0.77,0.92
		l0.12-0.1l-0.24-0.4l1.79-1.5l-0.48,3.43l0.56,0.66l0.12-0.1l-0.24-0.41l2.16-1.81L14.47,63.7z M14.04,67.21l-0.74-0.74l0.24-0.42
		l-0.1-0.11l-0.47,0.56l1.54,1.54l0.11-0.11l-0.27-0.39l1.99-1.99l0.38,0.27l0.11-0.11l-1.7-1.7l-0.71,0.43l0.12,0.12l0.5-0.23
		l0.92,0.93l-0.91,0.91l-0.62-0.62l0.2-0.32l-0.1-0.1c-0.16,0.2-0.47,0.51-0.68,0.67l0.1,0.1l0.31-0.19l0.61,0.62L14.04,67.21z
		 M15.58,68.78l-0.09,0.13l0.82,0.59l2.25-1.36l-0.58,2.58l0.83,0.61l0.09-0.13l-0.36-0.36l1.89-2.11l0.37,0.17l0.09-0.13L20,68.11
		l-0.1,0.13l0.31,0.33L18.5,70.5l0,0.01l-0.01,0l0.67-2.97l-0.05-0.03l-2.64,1.61l-0.01,0.01l-0.01,0l1.35-2.29l0.42,0.21l0.09-0.13
		l-1.1-0.8l-0.1,0.13l0.31,0.32l-1.43,2.45L15.58,68.78z M23.24,70.28l0.08-0.14l-1.31-0.76l-0.08,0.14l0.41,0.33l-1.4,2.42
		l-0.52-0.3c-0.15-0.09-0.3-0.18-0.42-0.27l0.17-0.51l-0.15-0.09l-0.37,0.72l2.68,1.55l0.49-0.65l-0.14-0.08l-0.41,0.37
		c-0.13-0.06-0.27-0.13-0.41-0.22l-0.51-0.29l1.4-2.42L23.24,70.28z M25.02,74.38c-0.08-0.01-0.16-0.04-0.24-0.08
		c-0.49-0.22-0.61-0.6-0.4-1.08c0.27-0.61,0.54-0.52,1.07-0.28c0.06,0.03,0.13,0.06,0.18,0.09L25.02,74.38z M27.09,72.08l0.07-0.15
		l-1.29-0.58l-0.06,0.15l0.39,0.26l-0.47,1.06c-0.16-0.07-0.32-0.14-0.47-0.19c-0.09-0.52-0.22-1.08-0.37-1.61
		c-0.01-0.04-0.16-0.15-0.25-0.22l-0.29-0.23l-0.1,0.11c0.22,0.23,0.29,0.6,0.36,0.88l0.23,0.99c-0.39,0.07-0.77,0.28-0.94,0.65
		c-0.23,0.52,0.08,0.92,0.52,1.11l1.42,0.63l0.07-0.15l-0.41-0.27l1.15-2.57L27.09,72.08z M25.02,74.38
		c-0.08-0.01-0.16-0.04-0.24-0.08c-0.49-0.22-0.61-0.6-0.4-1.08c0.27-0.61,0.54-0.52,1.07-0.28c0.06,0.03,0.13,0.06,0.18,0.09
		L25.02,74.38z M27.09,72.08l0.07-0.15l-1.29-0.58l-0.06,0.15l0.39,0.26l-0.47,1.06c-0.16-0.07-0.32-0.14-0.47-0.19
		c-0.09-0.52-0.22-1.08-0.37-1.61c-0.01-0.04-0.16-0.15-0.25-0.22l-0.29-0.23l-0.1,0.11c0.22,0.23,0.29,0.6,0.36,0.88l0.23,0.99
		c-0.39,0.07-0.77,0.28-0.94,0.65c-0.23,0.52,0.08,0.92,0.52,1.11l1.42,0.63l0.07-0.15l-0.41-0.27l1.15-2.57L27.09,72.08z
		 M28.42,73.61l-0.06-1.06l0.46,0.07l0.05-0.15l-1.29-0.44l-0.05,0.15l0.35,0.21l0.21,3.38l0.23,0.08l2.19-2.56l0.41,0.05l0.05-0.15
		l-1.12-0.38l-0.05,0.15l0.41,0.23L29.55,74L28.42,73.61z M28.52,75.24l-0.08-1.37l0.95,0.33L28.52,75.24z M28.42,73.61l-0.06-1.06
		l0.46,0.07l0.05-0.15l-1.29-0.44l-0.05,0.15l0.35,0.21l0.21,3.38l0.23,0.08l2.19-2.56l0.41,0.05l0.05-0.15l-1.12-0.38l-0.05,0.15
		l0.41,0.23L29.55,74L28.42,73.61z M28.52,75.24l-0.08-1.37l0.95,0.33L28.52,75.24z M33.62,73.88l0.03-0.16l-1.45-0.31l-0.03,0.16
		l0.5,0.19l-0.6,2.8c-0.12-0.01-0.24-0.03-0.36-0.06c-0.41-0.09-0.67-0.36-0.6-0.86c0.05-0.37,0.26-0.83,0.89-0.7
		c0.08,0.02,0.15,0.04,0.22,0.08L32.25,75l0.03-0.13c-0.1-0.05-0.2-0.08-0.31-0.11c-0.63-0.13-1.2,0.22-1.34,0.86
		c-0.14,0.64,0.34,0.91,0.92,1.03l1.4,0.3L33,76.79l-0.46-0.18l0.59-2.75L33.62,73.88z M35.46,77.02l-1.04-0.13l-0.07-0.48
		L34.2,76.4l-0.02,0.73l2.16,0.26l0.02-0.16l-0.45-0.14l0.34-2.8l0.47-0.02l0.02-0.16l-2.38-0.29l-0.29,0.77l0.17,0.02l0.25-0.49
		l1.3,0.16l-0.16,1.28l-0.87-0.11l-0.04-0.37l-0.14-0.02c0,0.26-0.06,0.7-0.12,0.95l0.14,0.02l0.13-0.34l0.86,0.11L35.46,77.02z
		 M39.99,77.34c-0.2,0.02-0.39,0.02-0.59,0.02c-0.98-0.02-1.6-0.48-1.58-1.57c0.02-0.9,0.57-1.38,1.38-1.36
		c0.3,0.01,0.54,0.05,0.84,0.1L39.99,77.34z M40.97,74.26l-1.7-0.03c-1.07-0.02-1.94,0.47-1.96,1.72c-0.02,1.19,0.85,1.56,1.84,1.58
		l1.76,0.03l0-0.16l-0.46-0.09l0.05-2.82l0.46-0.07L40.97,74.26z M39.99,77.34c-0.2,0.02-0.39,0.02-0.59,0.02
		c-0.98-0.02-1.6-0.48-1.58-1.57c0.02-0.9,0.57-1.38,1.38-1.36c0.3,0.01,0.54,0.05,0.84,0.1L39.99,77.34z M40.97,74.26l-1.7-0.03
		c-1.07-0.02-1.94,0.47-1.96,1.72c-0.02,1.19,0.85,1.56,1.84,1.58l1.76,0.03l0-0.16l-0.46-0.09l0.05-2.82l0.46-0.07L40.97,74.26z
		 M36.82,56.56c4.47,1.72,9.77,4,14.24,6.78c0.86,0.58,1.24,1.67,0.9,2.71c-1.24,2.85-6.42,3.84-4.82,7.83
		c0.55,1.42,1.87,2.52,3.41,2.61c0.31,0.04,0.71-0.03,1.33-0.23l0.38,0.54c-0.74,0.64-1.08,0.85-1.48,1.11
		c-0.92,0.6-2.35,1.21-4.34,0.88c-1.16-0.28-2.28-0.9-3.01-2.01c-0.7-1.06-0.82-2.77-0.2-3.92c1.15-2.26,4.48-3.55,4.82-5.42
		c0.17-1.04-0.86-1.97-1.71-2.51C39.88,61.2,33,58.5,25.86,56.41c-0.9-0.25-2.3-0.7-3.28,0.62l-0.48-0.37
		c0.07-1.2,0.72-2.36,1.83-2.94c1.95-0.88,4.64,0.13,6.14,0.58L36.82,56.56z"/>
</g>
</svg>
