<?xml version="1.0" encoding="utf-8"?>
<!-- Generator: Adobe Illustrator 23.0.3, SVG Export Plug-In . SVG Version: 6.00 Build 0)  -->
<svg version="1.1" id="Layer_1" xmlns="http://www.w3.org/2000/svg" xmlns:xlink="http://www.w3.org/1999/xlink" x="0px" y="0px"
	 viewBox="0 0 346.85 72" style="enable-background:new 0 0 346.85 72;" xml:space="preserve">
<style type="text/css">
	.st0{fill:#626366;}
	.st1{fill:#00E1D5;}
</style>
<g>
	<path class="st0" d="M124.1,16.85h2.64l6.52,10.52h0.04V16.85h2.38v14.28h-2.64l-6.5-10.5h-0.06v10.5h-2.38V16.85z M146.65,28.83
		c0,0.28,0.04,0.48,0.11,0.6c0.07,0.12,0.22,0.18,0.43,0.18h0.24c0.09,0,0.2-0.01,0.32-0.04v1.58c-0.08,0.03-0.18,0.06-0.31,0.09
		c-0.13,0.03-0.26,0.06-0.39,0.09c-0.13,0.03-0.27,0.05-0.4,0.06c-0.13,0.01-0.25,0.02-0.34,0.02c-0.47,0-0.85-0.09-1.16-0.28
		c-0.31-0.19-0.51-0.51-0.6-0.98c-0.45,0.44-1.01,0.76-1.67,0.96c-0.66,0.2-1.3,0.3-1.91,0.3c-0.47,0-0.91-0.06-1.34-0.19
		c-0.43-0.13-0.8-0.31-1.13-0.56c-0.33-0.25-0.59-0.56-0.78-0.94c-0.19-0.38-0.29-0.82-0.29-1.33c0-0.64,0.12-1.16,0.35-1.56
		c0.23-0.4,0.54-0.71,0.92-0.94c0.38-0.23,0.81-0.39,1.28-0.49c0.47-0.1,0.95-0.18,1.43-0.23c0.41-0.08,0.81-0.14,1.18-0.17
		c0.37-0.03,0.7-0.09,0.99-0.17c0.29-0.08,0.51-0.2,0.68-0.37c0.17-0.17,0.25-0.42,0.25-0.75c0-0.29-0.07-0.53-0.21-0.72
		c-0.14-0.19-0.31-0.33-0.52-0.43c-0.21-0.1-0.44-0.17-0.69-0.2c-0.25-0.03-0.49-0.05-0.72-0.05c-0.64,0-1.17,0.13-1.58,0.4
		c-0.41,0.27-0.65,0.68-0.7,1.24h-2.28c0.04-0.67,0.2-1.22,0.48-1.66c0.28-0.44,0.64-0.79,1.07-1.06c0.43-0.27,0.92-0.45,1.47-0.56
		c0.55-0.11,1.11-0.16,1.68-0.16c0.51,0,1.01,0.05,1.5,0.16c0.49,0.11,0.94,0.28,1.33,0.52c0.39,0.24,0.71,0.55,0.95,0.93
		c0.24,0.38,0.36,0.84,0.36,1.39V28.83z M144.37,25.95c-0.35,0.23-0.77,0.36-1.28,0.41c-0.51,0.05-1.01,0.12-1.52,0.21
		c-0.24,0.04-0.47,0.1-0.7,0.17c-0.23,0.07-0.43,0.17-0.6,0.3c-0.17,0.13-0.31,0.29-0.41,0.5c-0.1,0.21-0.15,0.46-0.15,0.75
		c0,0.25,0.07,0.47,0.22,0.64c0.15,0.17,0.32,0.31,0.53,0.41c0.21,0.1,0.43,0.17,0.68,0.21c0.25,0.04,0.47,0.06,0.67,0.06
		c0.25,0,0.53-0.03,0.82-0.1c0.29-0.07,0.57-0.18,0.83-0.34c0.26-0.16,0.48-0.36,0.65-0.61c0.17-0.25,0.26-0.55,0.26-0.91V25.95z
		 M147.71,20.79h1.72v-3.1h2.28v3.1h2.06v1.7h-2.06v5.52c0,0.24,0.01,0.45,0.03,0.62c0.02,0.17,0.07,0.32,0.14,0.44
		c0.07,0.12,0.18,0.21,0.33,0.27c0.15,0.06,0.35,0.09,0.6,0.09c0.16,0,0.32,0,0.48-0.01c0.16-0.01,0.32-0.03,0.48-0.07v1.76
		c-0.25,0.03-0.5,0.05-0.74,0.08c-0.24,0.03-0.49,0.04-0.74,0.04c-0.6,0-1.08-0.06-1.45-0.17c-0.37-0.11-0.65-0.28-0.86-0.5
		c-0.21-0.22-0.35-0.5-0.42-0.83c-0.07-0.33-0.12-0.71-0.13-1.14v-6.1h-1.72V20.79z M155.13,16.85h2.28v2.16h-2.28V16.85z
		 M155.13,20.79h2.28v10.34h-2.28V20.79z M164.27,31.41c-0.83,0-1.56-0.14-2.21-0.41c-0.65-0.27-1.19-0.65-1.64-1.13
		c-0.45-0.48-0.79-1.05-1.02-1.72s-0.35-1.4-0.35-2.2c0-0.79,0.12-1.51,0.35-2.18s0.57-1.24,1.02-1.72
		c0.45-0.48,0.99-0.86,1.64-1.13c0.65-0.27,1.38-0.41,2.21-0.41c0.83,0,1.56,0.14,2.21,0.41c0.65,0.27,1.19,0.65,1.64,1.13
		c0.45,0.48,0.79,1.05,1.02,1.72c0.23,0.67,0.35,1.39,0.35,2.18c0,0.8-0.12,1.53-0.35,2.2c-0.23,0.67-0.57,1.24-1.02,1.72
		c-0.45,0.48-0.99,0.86-1.64,1.13C165.83,31.28,165.1,31.41,164.27,31.41 M164.27,29.61c0.51,0,0.95-0.11,1.32-0.32
		c0.37-0.21,0.68-0.49,0.92-0.84c0.24-0.35,0.42-0.74,0.53-1.17c0.11-0.43,0.17-0.88,0.17-1.33c0-0.44-0.06-0.88-0.17-1.32
		c-0.11-0.44-0.29-0.83-0.53-1.17c-0.24-0.34-0.55-0.62-0.92-0.83c-0.37-0.21-0.81-0.32-1.32-0.32s-0.95,0.11-1.32,0.32
		c-0.37,0.21-0.68,0.49-0.92,0.83c-0.24,0.34-0.42,0.73-0.53,1.17c-0.11,0.44-0.17,0.88-0.17,1.32c0,0.45,0.06,0.9,0.17,1.33
		c0.11,0.43,0.29,0.82,0.53,1.17c0.24,0.35,0.55,0.63,0.92,0.84C163.32,29.51,163.76,29.61,164.27,29.61 M171.05,20.79h2.16v1.52
		l0.04,0.04c0.35-0.57,0.8-1.02,1.36-1.35c0.56-0.33,1.18-0.49,1.86-0.49c1.13,0,2.03,0.29,2.68,0.88c0.65,0.59,0.98,1.47,0.98,2.64
		v7.1h-2.28v-6.5c-0.03-0.81-0.2-1.4-0.52-1.77c-0.32-0.37-0.82-0.55-1.5-0.55c-0.39,0-0.73,0.07-1.04,0.21
		c-0.31,0.14-0.57,0.33-0.78,0.58c-0.21,0.25-0.38,0.54-0.5,0.87c-0.12,0.33-0.18,0.69-0.18,1.06v6.1h-2.28V20.79z M190.86,28.83
		c0,0.28,0.03,0.48,0.11,0.6c0.07,0.12,0.22,0.18,0.43,0.18h0.24c0.09,0,0.2-0.01,0.32-0.04v1.58c-0.08,0.03-0.18,0.06-0.31,0.09
		c-0.13,0.03-0.26,0.06-0.39,0.09c-0.13,0.03-0.27,0.05-0.4,0.06c-0.13,0.01-0.25,0.02-0.34,0.02c-0.47,0-0.85-0.09-1.16-0.28
		c-0.31-0.19-0.51-0.51-0.6-0.98c-0.45,0.44-1.01,0.76-1.67,0.96c-0.66,0.2-1.3,0.3-1.91,0.3c-0.47,0-0.91-0.06-1.34-0.19
		c-0.43-0.13-0.8-0.31-1.13-0.56c-0.33-0.25-0.59-0.56-0.78-0.94c-0.19-0.38-0.29-0.82-0.29-1.33c0-0.64,0.12-1.16,0.35-1.56
		c0.23-0.4,0.54-0.71,0.92-0.94c0.38-0.23,0.81-0.39,1.28-0.49c0.47-0.1,0.95-0.18,1.43-0.23c0.41-0.08,0.81-0.14,1.18-0.17
		c0.37-0.03,0.7-0.09,0.99-0.17c0.29-0.08,0.51-0.2,0.68-0.37c0.17-0.17,0.25-0.42,0.25-0.75c0-0.29-0.07-0.53-0.21-0.72
		c-0.14-0.19-0.31-0.33-0.52-0.43c-0.21-0.1-0.44-0.17-0.69-0.2c-0.25-0.03-0.49-0.05-0.72-0.05c-0.64,0-1.17,0.13-1.58,0.4
		c-0.41,0.27-0.65,0.68-0.7,1.24h-2.28c0.04-0.67,0.2-1.22,0.48-1.66c0.28-0.44,0.64-0.79,1.07-1.06c0.43-0.27,0.92-0.45,1.47-0.56
		c0.55-0.11,1.11-0.16,1.68-0.16c0.51,0,1.01,0.05,1.5,0.16c0.49,0.11,0.94,0.28,1.33,0.52c0.39,0.24,0.71,0.55,0.95,0.93
		c0.24,0.38,0.36,0.84,0.36,1.39V28.83z M188.58,25.95c-0.35,0.23-0.77,0.36-1.28,0.41c-0.51,0.05-1.01,0.12-1.52,0.21
		c-0.24,0.04-0.47,0.1-0.7,0.17c-0.23,0.07-0.43,0.17-0.6,0.3c-0.17,0.13-0.31,0.29-0.41,0.5c-0.1,0.21-0.15,0.46-0.15,0.75
		c0,0.25,0.07,0.47,0.22,0.64c0.15,0.17,0.32,0.31,0.53,0.41c0.21,0.1,0.43,0.17,0.68,0.21c0.25,0.04,0.47,0.06,0.67,0.06
		c0.25,0,0.53-0.03,0.82-0.1c0.29-0.07,0.57-0.18,0.83-0.34c0.26-0.16,0.48-0.36,0.65-0.61c0.17-0.25,0.26-0.55,0.26-0.91V25.95z
		 M193.02,16.85h2.28v14.28h-2.28V16.85z M202.9,16.85h2.5v5.68h6.5v-5.68h2.5v14.28h-2.5v-6.44h-6.5v6.44h-2.5V16.85z
		 M225.82,31.13h-2.24v-1.44h-0.04c-0.28,0.52-0.7,0.94-1.25,1.25c-0.55,0.31-1.12,0.47-1.69,0.47c-1.36,0-2.35-0.34-2.95-1.01
		c-0.61-0.67-0.91-1.69-0.91-3.05v-6.56h2.28v6.34c0,0.91,0.17,1.55,0.52,1.92c0.35,0.37,0.83,0.56,1.46,0.56
		c0.48,0,0.88-0.07,1.2-0.22c0.32-0.15,0.58-0.34,0.78-0.59c0.2-0.25,0.34-0.54,0.43-0.89c0.09-0.35,0.13-0.72,0.13-1.12v-6h2.28
		V31.13z M227.88,20.79h2.16v1.44h0.06c0.17-0.25,0.36-0.49,0.56-0.7c0.2-0.21,0.42-0.39,0.67-0.54c0.25-0.15,0.53-0.26,0.85-0.35
		c0.32-0.09,0.69-0.13,1.1-0.13c0.63,0,1.21,0.14,1.75,0.42c0.54,0.28,0.92,0.71,1.15,1.3c0.39-0.53,0.83-0.95,1.34-1.26
		c0.51-0.31,1.14-0.46,1.9-0.46c1.1,0,1.94,0.27,2.55,0.8c0.61,0.53,0.91,1.43,0.91,2.68v7.14h-2.28v-6.04
		c0-0.41-0.01-0.79-0.04-1.13c-0.03-0.34-0.1-0.63-0.23-0.88c-0.13-0.25-0.32-0.44-0.57-0.57c-0.25-0.13-0.6-0.2-1.04-0.2
		c-0.77,0-1.33,0.24-1.68,0.72c-0.35,0.48-0.52,1.16-0.52,2.04v6.06h-2.28v-6.64c0-0.72-0.13-1.26-0.39-1.63
		c-0.26-0.37-0.74-0.55-1.43-0.55c-0.29,0-0.58,0.06-0.85,0.18c-0.27,0.12-0.51,0.29-0.72,0.52c-0.21,0.23-0.37,0.51-0.5,0.84
		c-0.13,0.33-0.19,0.71-0.19,1.14v6.14h-2.28V20.79z M253.61,28.83c0,0.28,0.04,0.48,0.11,0.6c0.07,0.12,0.22,0.18,0.43,0.18h0.24
		c0.09,0,0.2-0.01,0.32-0.04v1.58c-0.08,0.03-0.18,0.06-0.31,0.09c-0.13,0.03-0.26,0.06-0.39,0.09c-0.13,0.03-0.27,0.05-0.4,0.06
		c-0.14,0.01-0.25,0.02-0.34,0.02c-0.47,0-0.85-0.09-1.16-0.28c-0.31-0.19-0.51-0.51-0.6-0.98c-0.45,0.44-1.01,0.76-1.67,0.96
		c-0.66,0.2-1.3,0.3-1.91,0.3c-0.47,0-0.91-0.06-1.34-0.19c-0.43-0.13-0.8-0.31-1.13-0.56c-0.33-0.25-0.59-0.56-0.78-0.94
		c-0.19-0.38-0.29-0.82-0.29-1.33c0-0.64,0.11-1.16,0.35-1.56c0.23-0.4,0.54-0.71,0.92-0.94c0.38-0.23,0.81-0.39,1.28-0.49
		c0.47-0.1,0.95-0.18,1.43-0.23c0.41-0.08,0.81-0.14,1.18-0.17c0.37-0.03,0.7-0.09,0.99-0.17c0.29-0.08,0.51-0.2,0.68-0.37
		c0.17-0.17,0.25-0.42,0.25-0.75c0-0.29-0.07-0.53-0.21-0.72c-0.14-0.19-0.31-0.33-0.52-0.43c-0.21-0.1-0.44-0.17-0.69-0.2
		c-0.25-0.03-0.49-0.05-0.72-0.05c-0.64,0-1.17,0.13-1.58,0.4c-0.41,0.27-0.65,0.68-0.7,1.24h-2.28c0.04-0.67,0.2-1.22,0.48-1.66
		c0.28-0.44,0.64-0.79,1.07-1.06c0.43-0.27,0.92-0.45,1.47-0.56c0.55-0.11,1.11-0.16,1.68-0.16c0.51,0,1.01,0.05,1.5,0.16
		c0.49,0.11,0.94,0.28,1.33,0.52c0.39,0.24,0.71,0.55,0.95,0.93c0.24,0.38,0.36,0.84,0.36,1.39V28.83z M251.33,25.95
		c-0.35,0.23-0.77,0.36-1.28,0.41c-0.51,0.05-1.01,0.12-1.52,0.21c-0.24,0.04-0.47,0.1-0.7,0.17c-0.23,0.07-0.43,0.17-0.6,0.3
		c-0.17,0.13-0.31,0.29-0.41,0.5c-0.1,0.21-0.15,0.46-0.15,0.75c0,0.25,0.07,0.47,0.22,0.64c0.15,0.17,0.32,0.31,0.53,0.41
		c0.21,0.1,0.43,0.17,0.68,0.21c0.25,0.04,0.47,0.06,0.67,0.06c0.26,0,0.53-0.03,0.82-0.1c0.29-0.07,0.57-0.18,0.83-0.34
		c0.26-0.16,0.48-0.36,0.65-0.61c0.17-0.25,0.26-0.55,0.26-0.91V25.95z M255.71,20.79h2.16v1.52l0.04,0.04
		c0.35-0.57,0.8-1.02,1.36-1.35c0.56-0.33,1.18-0.49,1.86-0.49c1.13,0,2.03,0.29,2.68,0.88c0.65,0.59,0.98,1.47,0.98,2.64v7.1h-2.28
		v-6.5c-0.03-0.81-0.2-1.4-0.52-1.77c-0.32-0.37-0.82-0.55-1.5-0.55c-0.39,0-0.73,0.07-1.04,0.21c-0.31,0.14-0.57,0.33-0.78,0.58
		c-0.21,0.25-0.38,0.54-0.5,0.87c-0.12,0.33-0.18,0.69-0.18,1.06v6.1h-2.28V20.79z M284.85,31.13h-1.6l-0.38-1.68
		c-0.67,0.76-1.33,1.29-2,1.58c-0.67,0.29-1.43,0.44-2.3,0.44c-1.07,0-2.02-0.2-2.87-0.59c-0.85-0.39-1.56-0.93-2.15-1.61
		c-0.59-0.68-1.04-1.47-1.35-2.38c-0.31-0.91-0.47-1.87-0.47-2.9c0-1.01,0.16-1.97,0.47-2.88c0.31-0.91,0.76-1.7,1.35-2.38
		c0.59-0.68,1.3-1.22,2.15-1.62c0.85-0.4,1.8-0.6,2.87-0.6c0.77,0,1.51,0.1,2.21,0.31c0.7,0.21,1.32,0.51,1.87,0.92
		c0.55,0.41,1,0.92,1.36,1.53c0.36,0.61,0.59,1.32,0.68,2.12h-2.44c-0.07-0.47-0.21-0.88-0.43-1.23c-0.22-0.35-0.5-0.65-0.83-0.89
		c-0.33-0.24-0.71-0.42-1.12-0.54c-0.41-0.12-0.85-0.18-1.3-0.18c-0.76,0-1.42,0.15-1.97,0.46c-0.55,0.31-1,0.72-1.35,1.23
		c-0.35,0.51-0.6,1.1-0.77,1.75c-0.17,0.65-0.25,1.32-0.25,2s0.08,1.35,0.25,2c0.17,0.65,0.42,1.24,0.77,1.75
		c0.35,0.51,0.8,0.92,1.35,1.23c0.55,0.31,1.21,0.46,1.97,0.46c0.64,0.01,1.21-0.07,1.7-0.25c0.49-0.18,0.91-0.44,1.25-0.78
		c0.34-0.34,0.6-0.76,0.77-1.25c0.17-0.49,0.27-1.04,0.28-1.64h-3.8v-1.9h6.08V31.13z M288.69,26.55c0,0.4,0.06,0.79,0.17,1.16
		c0.11,0.37,0.28,0.7,0.51,0.98c0.23,0.28,0.51,0.5,0.86,0.67c0.35,0.17,0.76,0.25,1.24,0.25c0.67,0,1.21-0.14,1.61-0.43
		c0.41-0.29,0.71-0.72,0.91-1.29h2.16c-0.12,0.56-0.33,1.06-0.62,1.5c-0.29,0.44-0.65,0.81-1.06,1.11c-0.41,0.3-0.88,0.53-1.39,0.68
		c-0.51,0.15-1.05,0.23-1.61,0.23c-0.81,0-1.53-0.13-2.16-0.4c-0.63-0.27-1.16-0.64-1.59-1.12c-0.43-0.48-0.76-1.05-0.98-1.72
		c-0.22-0.67-0.33-1.4-0.33-2.2c0-0.73,0.12-1.43,0.35-2.09c0.23-0.66,0.57-1.24,1-1.74c0.43-0.5,0.95-0.9,1.57-1.19
		c0.61-0.29,1.31-0.44,2.08-0.44c0.82,0,1.55,0.17,2.19,0.51c0.65,0.34,1.18,0.79,1.61,1.35c0.43,0.56,0.74,1.2,0.93,1.93
		c0.19,0.73,0.24,1.48,0.15,2.25H288.69z M294.01,25.05c-0.03-0.36-0.1-0.71-0.23-1.04c-0.13-0.33-0.3-0.62-0.52-0.87
		c-0.22-0.25-0.49-0.45-0.8-0.6c-0.31-0.15-0.66-0.23-1.05-0.23c-0.4,0-0.76,0.07-1.09,0.21c-0.33,0.14-0.61,0.33-0.84,0.58
		c-0.23,0.25-0.42,0.54-0.56,0.87c-0.14,0.33-0.22,0.69-0.23,1.08H294.01z M297.69,20.79h2.16v1.52l0.04,0.04
		c0.35-0.57,0.8-1.02,1.36-1.35c0.56-0.33,1.18-0.49,1.86-0.49c1.13,0,2.03,0.29,2.68,0.88c0.65,0.59,0.98,1.47,0.98,2.64v7.1h-2.28
		v-6.5c-0.03-0.81-0.2-1.4-0.52-1.77c-0.32-0.37-0.82-0.55-1.5-0.55c-0.39,0-0.73,0.07-1.04,0.21c-0.31,0.14-0.57,0.33-0.78,0.58
		c-0.21,0.25-0.38,0.54-0.5,0.87c-0.12,0.33-0.18,0.69-0.18,1.06v6.1h-2.28V20.79z M313.58,31.41c-0.83,0-1.56-0.14-2.21-0.41
		c-0.65-0.27-1.19-0.65-1.64-1.13c-0.45-0.48-0.79-1.05-1.02-1.72c-0.23-0.67-0.35-1.4-0.35-2.2c0-0.79,0.11-1.51,0.35-2.18
		c0.23-0.67,0.57-1.24,1.02-1.72c0.45-0.48,0.99-0.86,1.64-1.13c0.65-0.27,1.38-0.41,2.21-0.41c0.83,0,1.57,0.14,2.21,0.41
		c0.65,0.27,1.19,0.65,1.64,1.13c0.45,0.48,0.79,1.05,1.02,1.72c0.23,0.67,0.35,1.39,0.35,2.18c0,0.8-0.12,1.53-0.35,2.2
		c-0.23,0.67-0.57,1.24-1.02,1.72c-0.45,0.48-0.99,0.86-1.64,1.13C315.14,31.28,314.4,31.41,313.58,31.41 M313.58,29.61
		c0.51,0,0.95-0.11,1.32-0.32c0.37-0.21,0.68-0.49,0.92-0.84c0.24-0.35,0.42-0.74,0.53-1.17c0.11-0.43,0.17-0.88,0.17-1.33
		c0-0.44-0.06-0.88-0.17-1.32c-0.11-0.44-0.29-0.83-0.53-1.17c-0.24-0.34-0.55-0.62-0.92-0.83c-0.37-0.21-0.81-0.32-1.32-0.32
		c-0.51,0-0.95,0.11-1.32,0.32c-0.37,0.21-0.68,0.49-0.92,0.83c-0.24,0.34-0.42,0.73-0.53,1.17c-0.11,0.44-0.17,0.88-0.17,1.32
		c0,0.45,0.06,0.9,0.17,1.33c0.11,0.43,0.29,0.82,0.53,1.17c0.24,0.35,0.55,0.63,0.92,0.84C312.63,29.51,313.07,29.61,313.58,29.61
		 M320.36,20.79h2.16v1.44h0.06c0.17-0.25,0.36-0.49,0.56-0.7s0.42-0.39,0.67-0.54c0.25-0.15,0.53-0.26,0.85-0.35
		c0.32-0.09,0.69-0.13,1.1-0.13c0.63,0,1.21,0.14,1.75,0.42c0.54,0.28,0.92,0.71,1.15,1.3c0.39-0.53,0.83-0.95,1.34-1.26
		c0.5-0.31,1.14-0.46,1.9-0.46c1.09,0,1.94,0.27,2.55,0.8c0.61,0.53,0.91,1.43,0.91,2.68v7.14h-2.28v-6.04
		c0-0.41-0.01-0.79-0.04-1.13c-0.03-0.34-0.11-0.63-0.23-0.88c-0.13-0.25-0.32-0.44-0.57-0.57c-0.25-0.13-0.6-0.2-1.04-0.2
		c-0.77,0-1.33,0.24-1.68,0.72c-0.35,0.48-0.52,1.16-0.52,2.04v6.06h-2.28v-6.64c0-0.72-0.13-1.26-0.39-1.63
		c-0.26-0.37-0.74-0.55-1.43-0.55c-0.29,0-0.58,0.06-0.85,0.18c-0.27,0.12-0.51,0.29-0.72,0.52c-0.21,0.23-0.37,0.51-0.5,0.84
		c-0.13,0.33-0.19,0.71-0.19,1.14v6.14h-2.28V20.79z M339.2,26.55c0,0.4,0.06,0.79,0.17,1.16c0.11,0.37,0.28,0.7,0.51,0.98
		c0.23,0.28,0.51,0.5,0.86,0.67c0.35,0.17,0.76,0.25,1.24,0.25c0.67,0,1.2-0.14,1.61-0.43c0.41-0.29,0.71-0.72,0.91-1.29h2.16
		c-0.12,0.56-0.33,1.06-0.62,1.5c-0.29,0.44-0.65,0.81-1.06,1.11c-0.41,0.3-0.88,0.53-1.39,0.68c-0.51,0.15-1.05,0.23-1.61,0.23
		c-0.81,0-1.53-0.13-2.16-0.4c-0.63-0.27-1.16-0.64-1.59-1.12c-0.43-0.48-0.76-1.05-0.98-1.72c-0.22-0.67-0.33-1.4-0.33-2.2
		c0-0.73,0.12-1.43,0.35-2.09c0.23-0.66,0.57-1.24,1-1.74c0.43-0.5,0.96-0.9,1.57-1.19c0.61-0.29,1.31-0.44,2.08-0.44
		c0.81,0,1.54,0.17,2.19,0.51c0.64,0.34,1.18,0.79,1.61,1.35c0.43,0.56,0.74,1.2,0.93,1.93c0.19,0.73,0.24,1.48,0.15,2.25H339.2z
		 M344.52,25.05c-0.03-0.36-0.1-0.71-0.23-1.04c-0.13-0.33-0.3-0.62-0.52-0.87c-0.22-0.25-0.49-0.45-0.8-0.6
		c-0.31-0.15-0.66-0.23-1.05-0.23c-0.4,0-0.76,0.07-1.09,0.21c-0.33,0.14-0.61,0.33-0.84,0.58c-0.23,0.25-0.42,0.54-0.56,0.87
		c-0.14,0.33-0.22,0.69-0.23,1.08H344.52z M124.2,42.19h6.82c1.57,0,2.75,0.34,3.54,1.02c0.79,0.68,1.18,1.63,1.18,2.84
		c0,0.68-0.1,1.24-0.3,1.69c-0.2,0.45-0.43,0.81-0.7,1.08c-0.27,0.27-0.53,0.47-0.79,0.59c-0.26,0.12-0.45,0.2-0.57,0.24v0.04
		c0.21,0.03,0.44,0.09,0.69,0.2c0.25,0.11,0.48,0.28,0.69,0.51c0.21,0.23,0.39,0.54,0.53,0.91c0.14,0.37,0.21,0.84,0.21,1.4
		c0,0.84,0.06,1.6,0.19,2.29c0.13,0.69,0.32,1.18,0.59,1.47h-2.68c-0.19-0.31-0.3-0.65-0.33-1.02c-0.03-0.37-0.05-0.73-0.05-1.08
		c0-0.65-0.04-1.22-0.12-1.69c-0.08-0.47-0.23-0.87-0.44-1.18c-0.21-0.31-0.5-0.54-0.87-0.69c-0.37-0.15-0.84-0.22-1.41-0.22h-3.68
		v5.88h-2.5V42.19z M126.7,48.69h4.1c0.8,0,1.41-0.19,1.82-0.57c0.41-0.38,0.62-0.95,0.62-1.71c0-0.45-0.07-0.82-0.2-1.11
		c-0.13-0.29-0.32-0.51-0.55-0.67c-0.23-0.16-0.5-0.27-0.8-0.32c-0.3-0.05-0.61-0.08-0.93-0.08h-4.06V48.69z M139.39,51.9
		c0,0.4,0.06,0.79,0.17,1.16c0.11,0.37,0.28,0.7,0.51,0.98c0.23,0.28,0.51,0.5,0.86,0.67s0.76,0.25,1.24,0.25
		c0.67,0,1.2-0.14,1.61-0.43c0.41-0.29,0.71-0.72,0.91-1.29h2.16c-0.12,0.56-0.33,1.06-0.62,1.5c-0.29,0.44-0.65,0.81-1.06,1.11
		c-0.41,0.3-0.88,0.53-1.39,0.68c-0.51,0.15-1.05,0.23-1.61,0.23c-0.81,0-1.53-0.13-2.16-0.4c-0.63-0.27-1.16-0.64-1.59-1.12
		c-0.43-0.48-0.76-1.05-0.98-1.72c-0.22-0.67-0.33-1.4-0.33-2.2c0-0.73,0.12-1.43,0.35-2.09c0.23-0.66,0.57-1.24,1-1.74
		c0.43-0.5,0.96-0.9,1.57-1.19c0.61-0.29,1.31-0.44,2.08-0.44c0.81,0,1.54,0.17,2.19,0.51c0.65,0.34,1.18,0.79,1.61,1.35
		c0.43,0.56,0.74,1.2,0.93,1.93c0.19,0.73,0.24,1.48,0.15,2.25H139.39z M144.71,50.4c-0.03-0.36-0.1-0.71-0.23-1.04
		c-0.13-0.33-0.3-0.62-0.52-0.87c-0.22-0.25-0.49-0.45-0.8-0.6c-0.31-0.15-0.66-0.23-1.05-0.23c-0.4,0-0.76,0.07-1.09,0.21
		c-0.33,0.14-0.61,0.33-0.84,0.58c-0.23,0.25-0.42,0.54-0.56,0.87c-0.14,0.33-0.22,0.69-0.23,1.08H144.71z M150.11,53.16
		c0.07,0.67,0.32,1.13,0.76,1.4c0.44,0.27,0.97,0.4,1.58,0.4c0.21,0,0.46-0.02,0.73-0.05c0.27-0.03,0.53-0.1,0.77-0.19
		c0.24-0.09,0.44-0.23,0.59-0.41c0.15-0.18,0.22-0.42,0.21-0.71c-0.01-0.29-0.12-0.53-0.32-0.72c-0.2-0.19-0.46-0.34-0.77-0.45
		c-0.31-0.11-0.67-0.21-1.07-0.29c-0.4-0.08-0.81-0.17-1.22-0.26c-0.43-0.09-0.84-0.21-1.23-0.34c-0.39-0.13-0.75-0.31-1.06-0.54
		c-0.31-0.23-0.56-0.52-0.75-0.87c-0.19-0.35-0.28-0.79-0.28-1.31c0-0.56,0.14-1.03,0.41-1.41c0.27-0.38,0.62-0.69,1.04-0.92
		c0.42-0.23,0.89-0.4,1.4-0.49c0.51-0.09,1-0.14,1.47-0.14c0.53,0,1.04,0.06,1.53,0.17c0.49,0.11,0.93,0.3,1.32,0.55
		c0.39,0.25,0.72,0.58,0.98,0.99c0.26,0.41,0.42,0.9,0.49,1.47h-2.38c-0.11-0.55-0.36-0.91-0.75-1.1c-0.39-0.19-0.84-0.28-1.35-0.28
		c-0.16,0-0.35,0.01-0.57,0.04c-0.22,0.03-0.43,0.08-0.62,0.15c-0.19,0.07-0.36,0.18-0.49,0.32c-0.13,0.14-0.2,0.32-0.2,0.55
		c0,0.28,0.1,0.51,0.29,0.68c0.19,0.17,0.45,0.32,0.76,0.43c0.31,0.11,0.67,0.21,1.07,0.29c0.4,0.08,0.82,0.17,1.24,0.26
		c0.41,0.09,0.82,0.21,1.22,0.34c0.4,0.13,0.76,0.31,1.07,0.54s0.57,0.51,0.76,0.86c0.19,0.35,0.29,0.77,0.29,1.28
		c0,0.61-0.14,1.13-0.42,1.56c-0.28,0.43-0.65,0.77-1.09,1.04c-0.45,0.27-0.94,0.46-1.49,0.58c-0.55,0.12-1.09,0.18-1.62,0.18
		c-0.65,0-1.26-0.07-1.81-0.22c-0.55-0.15-1.04-0.37-1.44-0.67s-0.73-0.67-0.96-1.12c-0.23-0.45-0.36-0.98-0.37-1.59H150.11z
		 M160.19,51.9c0,0.4,0.06,0.79,0.17,1.16c0.11,0.37,0.28,0.7,0.51,0.98c0.23,0.28,0.51,0.5,0.86,0.67
		c0.35,0.17,0.76,0.25,1.24,0.25c0.67,0,1.2-0.14,1.61-0.43c0.41-0.29,0.71-0.72,0.91-1.29h2.16c-0.12,0.56-0.33,1.06-0.62,1.5
		c-0.29,0.44-0.65,0.81-1.06,1.11c-0.41,0.3-0.88,0.53-1.39,0.68c-0.51,0.15-1.05,0.23-1.61,0.23c-0.81,0-1.53-0.13-2.16-0.4
		c-0.63-0.27-1.16-0.64-1.59-1.12c-0.43-0.48-0.76-1.05-0.98-1.72c-0.22-0.67-0.33-1.4-0.33-2.2c0-0.73,0.12-1.43,0.35-2.09
		c0.23-0.66,0.57-1.24,1-1.74c0.43-0.5,0.96-0.9,1.57-1.19c0.61-0.29,1.31-0.44,2.08-0.44c0.81,0,1.54,0.17,2.19,0.51
		c0.65,0.34,1.18,0.79,1.61,1.35c0.43,0.56,0.74,1.2,0.93,1.93c0.19,0.73,0.24,1.48,0.15,2.25H160.19z M165.51,50.4
		c-0.03-0.36-0.1-0.71-0.23-1.04c-0.13-0.33-0.3-0.62-0.52-0.87c-0.22-0.25-0.49-0.45-0.8-0.6c-0.31-0.15-0.66-0.23-1.05-0.23
		c-0.4,0-0.76,0.07-1.09,0.21c-0.33,0.14-0.61,0.33-0.84,0.58c-0.23,0.25-0.42,0.54-0.56,0.87c-0.14,0.33-0.22,0.69-0.23,1.08
		H165.51z M177.83,54.18c0,0.28,0.04,0.48,0.11,0.6c0.07,0.12,0.22,0.18,0.43,0.18h0.24c0.09,0,0.2-0.01,0.32-0.04v1.58
		c-0.08,0.03-0.18,0.06-0.31,0.09c-0.13,0.03-0.26,0.06-0.39,0.09c-0.13,0.03-0.27,0.05-0.4,0.06c-0.13,0.01-0.25,0.02-0.34,0.02
		c-0.47,0-0.85-0.09-1.16-0.28c-0.31-0.19-0.51-0.51-0.6-0.98c-0.45,0.44-1.01,0.76-1.67,0.96c-0.66,0.2-1.3,0.3-1.91,0.3
		c-0.47,0-0.91-0.06-1.34-0.19c-0.43-0.13-0.8-0.31-1.13-0.56c-0.33-0.25-0.59-0.56-0.78-0.94c-0.19-0.38-0.29-0.82-0.29-1.33
		c0-0.64,0.12-1.16,0.35-1.56c0.23-0.4,0.54-0.71,0.92-0.94c0.38-0.23,0.81-0.39,1.28-0.49c0.47-0.1,0.95-0.18,1.43-0.23
		c0.41-0.08,0.81-0.14,1.18-0.17c0.37-0.03,0.7-0.09,0.99-0.17c0.29-0.08,0.51-0.2,0.68-0.37c0.17-0.17,0.25-0.42,0.25-0.75
		c0-0.29-0.07-0.53-0.21-0.72c-0.14-0.19-0.31-0.33-0.52-0.43c-0.21-0.1-0.44-0.17-0.69-0.2c-0.25-0.03-0.49-0.05-0.72-0.05
		c-0.64,0-1.17,0.13-1.58,0.4c-0.41,0.27-0.65,0.68-0.7,1.24h-2.28c0.04-0.67,0.2-1.22,0.48-1.66c0.28-0.44,0.64-0.79,1.07-1.06
		c0.43-0.27,0.92-0.45,1.47-0.56c0.55-0.11,1.11-0.16,1.68-0.16c0.51,0,1,0.05,1.5,0.16c0.49,0.11,0.94,0.28,1.33,0.52
		c0.39,0.24,0.71,0.55,0.95,0.93c0.24,0.38,0.36,0.84,0.36,1.39V54.18z M175.55,51.29c-0.35,0.23-0.77,0.36-1.28,0.41
		c-0.51,0.05-1.01,0.12-1.52,0.21c-0.24,0.04-0.47,0.1-0.7,0.17c-0.23,0.07-0.43,0.17-0.6,0.3c-0.17,0.13-0.31,0.29-0.41,0.5
		c-0.1,0.21-0.15,0.46-0.15,0.75c0,0.25,0.07,0.47,0.22,0.64c0.15,0.17,0.32,0.31,0.53,0.41c0.21,0.1,0.43,0.17,0.68,0.21
		c0.25,0.04,0.47,0.06,0.67,0.06c0.25,0,0.53-0.03,0.82-0.1c0.29-0.07,0.57-0.18,0.83-0.34c0.26-0.16,0.48-0.36,0.65-0.61
		c0.17-0.25,0.26-0.55,0.26-0.91V51.29z M179.93,46.13h2.14v2h0.04c0.07-0.28,0.2-0.55,0.39-0.82c0.19-0.27,0.43-0.51,0.7-0.73
		c0.27-0.22,0.58-0.4,0.91-0.53c0.33-0.13,0.67-0.2,1.02-0.2c0.27,0,0.45,0.01,0.55,0.02c0.1,0.01,0.2,0.03,0.31,0.04v2.2
		c-0.16-0.03-0.32-0.05-0.49-0.07c-0.17-0.02-0.33-0.03-0.49-0.03c-0.39,0-0.75,0.08-1.09,0.23c-0.34,0.15-0.64,0.38-0.89,0.68
		c-0.25,0.3-0.45,0.67-0.6,1.11c-0.15,0.44-0.22,0.95-0.22,1.52v4.92h-2.28V46.13z M193.26,49.59c-0.09-0.64-0.35-1.12-0.77-1.45
		c-0.42-0.33-0.95-0.49-1.59-0.49c-0.29,0-0.61,0.05-0.94,0.15c-0.33,0.1-0.64,0.29-0.92,0.56c-0.28,0.27-0.51,0.65-0.7,1.14
		c-0.19,0.49-0.28,1.12-0.28,1.91c0,0.43,0.05,0.85,0.15,1.28c0.1,0.43,0.26,0.81,0.48,1.14c0.22,0.33,0.5,0.6,0.85,0.81
		c0.35,0.21,0.77,0.31,1.26,0.31c0.67,0,1.22-0.21,1.65-0.62c0.43-0.41,0.7-0.99,0.81-1.74h2.28c-0.21,1.35-0.72,2.38-1.53,3.09
		c-0.81,0.71-1.88,1.07-3.21,1.07c-0.81,0-1.53-0.14-2.15-0.41c-0.62-0.27-1.14-0.65-1.57-1.12s-0.75-1.04-0.97-1.69
		c-0.22-0.65-0.33-1.36-0.33-2.12c0-0.77,0.11-1.5,0.32-2.18c0.21-0.68,0.53-1.27,0.96-1.77c0.43-0.5,0.96-0.89,1.59-1.18
		c0.63-0.29,1.38-0.43,2.23-0.43c0.6,0,1.17,0.08,1.71,0.23c0.54,0.15,1.02,0.38,1.44,0.69c0.42,0.31,0.76,0.69,1.03,1.16
		c0.27,0.47,0.43,1.02,0.48,1.66H193.26z M197.04,42.19h2.28v5.3h0.04c0.28-0.47,0.7-0.86,1.25-1.17c0.55-0.31,1.17-0.47,1.85-0.47
		c1.13,0,2.03,0.29,2.68,0.88c0.65,0.59,0.98,1.47,0.98,2.64v7.1h-2.28v-6.5c-0.03-0.81-0.2-1.4-0.52-1.77
		c-0.32-0.37-0.82-0.55-1.5-0.55c-0.39,0-0.73,0.07-1.04,0.21c-0.31,0.14-0.57,0.33-0.78,0.58c-0.21,0.25-0.38,0.54-0.5,0.87
		c-0.12,0.33-0.18,0.69-0.18,1.06v6.1h-2.28V42.19z M213.7,42.19h2.5v14.28h-2.5V42.19z M218.58,46.13h2.16v1.52l0.04,0.04
		c0.35-0.57,0.8-1.02,1.36-1.35c0.56-0.33,1.18-0.49,1.86-0.49c1.13,0,2.03,0.29,2.68,0.88c0.65,0.59,0.98,1.47,0.98,2.64v7.1h-2.28
		v-6.5c-0.03-0.81-0.2-1.4-0.52-1.77c-0.32-0.37-0.82-0.55-1.5-0.55c-0.39,0-0.73,0.07-1.04,0.21c-0.31,0.14-0.57,0.33-0.78,0.58
		c-0.21,0.25-0.38,0.54-0.5,0.87c-0.12,0.33-0.18,0.69-0.18,1.06v6.1h-2.28V46.13z M231.44,53.16c0.07,0.67,0.32,1.13,0.76,1.4
		c0.44,0.27,0.97,0.4,1.58,0.4c0.21,0,0.45-0.02,0.73-0.05c0.27-0.03,0.53-0.1,0.77-0.19c0.24-0.09,0.44-0.23,0.59-0.41
		c0.15-0.18,0.22-0.42,0.21-0.71c-0.01-0.29-0.12-0.53-0.32-0.72c-0.2-0.19-0.46-0.34-0.77-0.45c-0.31-0.11-0.67-0.21-1.07-0.29
		c-0.4-0.08-0.81-0.17-1.22-0.26c-0.43-0.09-0.84-0.21-1.23-0.34c-0.39-0.13-0.75-0.31-1.06-0.54c-0.31-0.23-0.56-0.52-0.75-0.87
		c-0.19-0.35-0.28-0.79-0.28-1.31c0-0.56,0.14-1.03,0.41-1.41c0.27-0.38,0.62-0.69,1.04-0.92c0.42-0.23,0.89-0.4,1.4-0.49
		c0.51-0.09,1-0.14,1.47-0.14c0.53,0,1.04,0.06,1.53,0.17c0.49,0.11,0.93,0.3,1.32,0.55c0.39,0.25,0.72,0.58,0.98,0.99
		c0.26,0.41,0.42,0.9,0.49,1.47h-2.38c-0.11-0.55-0.36-0.91-0.75-1.1c-0.39-0.19-0.84-0.28-1.35-0.28c-0.16,0-0.35,0.01-0.57,0.04
		c-0.22,0.03-0.43,0.08-0.62,0.15s-0.36,0.18-0.49,0.32c-0.13,0.14-0.2,0.32-0.2,0.55c0,0.28,0.1,0.51,0.29,0.68
		c0.19,0.17,0.45,0.32,0.76,0.43c0.31,0.11,0.67,0.21,1.07,0.29c0.4,0.08,0.82,0.17,1.24,0.26c0.42,0.09,0.82,0.21,1.22,0.34
		c0.4,0.13,0.76,0.31,1.07,0.54s0.57,0.51,0.76,0.86c0.19,0.35,0.29,0.77,0.29,1.28c0,0.61-0.14,1.13-0.42,1.56
		c-0.28,0.43-0.64,0.77-1.09,1.04c-0.45,0.27-0.95,0.46-1.49,0.58c-0.55,0.12-1.09,0.18-1.62,0.18c-0.65,0-1.26-0.07-1.81-0.22
		c-0.56-0.15-1.04-0.37-1.44-0.67c-0.41-0.3-0.73-0.67-0.96-1.12c-0.23-0.45-0.36-0.98-0.37-1.59H231.44z M238.72,46.13h1.72v-3.1
		h2.28v3.1h2.06v1.7h-2.06v5.52c0,0.24,0.01,0.45,0.03,0.62c0.02,0.17,0.07,0.32,0.14,0.44c0.07,0.12,0.18,0.21,0.33,0.27
		c0.14,0.06,0.35,0.09,0.6,0.09c0.16,0,0.32,0,0.48-0.01c0.16-0.01,0.32-0.03,0.48-0.07v1.76c-0.25,0.03-0.5,0.05-0.74,0.08
		c-0.24,0.03-0.49,0.04-0.74,0.04c-0.6,0-1.08-0.06-1.45-0.17c-0.37-0.11-0.65-0.28-0.86-0.5c-0.21-0.22-0.35-0.5-0.42-0.83
		c-0.07-0.33-0.12-0.71-0.13-1.14v-6.1h-1.72V46.13z M246.13,42.19h2.28v2.16h-2.28V42.19z M246.13,46.13h2.28v10.34h-2.28V46.13z
		 M249.51,46.13h1.72v-3.1h2.28v3.1h2.06v1.7h-2.06v5.52c0,0.24,0.01,0.45,0.03,0.62c0.02,0.17,0.07,0.32,0.14,0.44
		c0.07,0.12,0.18,0.21,0.33,0.27c0.15,0.06,0.35,0.09,0.6,0.09c0.16,0,0.32,0,0.48-0.01c0.16-0.01,0.32-0.03,0.48-0.07v1.76
		c-0.25,0.03-0.5,0.05-0.74,0.08c-0.24,0.03-0.49,0.04-0.74,0.04c-0.6,0-1.08-0.06-1.45-0.17c-0.37-0.11-0.65-0.28-0.86-0.5
		c-0.21-0.22-0.35-0.5-0.42-0.83c-0.07-0.33-0.12-0.71-0.13-1.14v-6.1h-1.72V46.13z M265.95,56.48h-2.24v-1.44h-0.04
		c-0.28,0.52-0.7,0.94-1.25,1.25c-0.55,0.31-1.12,0.47-1.69,0.47c-1.36,0-2.34-0.34-2.95-1.01c-0.61-0.67-0.91-1.69-0.91-3.05v-6.56
		h2.28v6.34c0,0.91,0.17,1.55,0.52,1.92c0.35,0.37,0.83,0.56,1.46,0.56c0.48,0,0.88-0.07,1.2-0.22c0.32-0.15,0.58-0.34,0.78-0.59
		c0.2-0.25,0.34-0.54,0.43-0.89c0.09-0.35,0.13-0.72,0.13-1.12v-6h2.28V56.48z M266.97,46.13h1.72v-3.1h2.28v3.1h2.06v1.7h-2.06
		v5.52c0,0.24,0.01,0.45,0.03,0.62c0.02,0.17,0.07,0.32,0.14,0.44c0.07,0.12,0.18,0.21,0.33,0.27c0.15,0.06,0.35,0.09,0.6,0.09
		c0.16,0,0.32,0,0.48-0.01c0.16-0.01,0.32-0.03,0.48-0.07v1.76c-0.26,0.03-0.5,0.05-0.74,0.08c-0.24,0.03-0.49,0.04-0.74,0.04
		c-0.6,0-1.08-0.06-1.45-0.17c-0.37-0.11-0.65-0.28-0.86-0.5c-0.21-0.22-0.35-0.5-0.42-0.83c-0.07-0.33-0.12-0.71-0.13-1.14v-6.1
		h-1.72V46.13z M276.11,51.9c0,0.4,0.06,0.79,0.17,1.16c0.11,0.37,0.28,0.7,0.51,0.98c0.23,0.28,0.51,0.5,0.86,0.67
		s0.76,0.25,1.24,0.25c0.67,0,1.2-0.14,1.61-0.43c0.41-0.29,0.71-0.72,0.91-1.29h2.16c-0.12,0.56-0.33,1.06-0.62,1.5
		c-0.29,0.44-0.65,0.81-1.06,1.11c-0.41,0.3-0.88,0.53-1.39,0.68c-0.51,0.15-1.05,0.23-1.61,0.23c-0.81,0-1.53-0.13-2.16-0.4
		c-0.63-0.27-1.16-0.64-1.59-1.12c-0.43-0.48-0.76-1.05-0.98-1.72c-0.22-0.67-0.33-1.4-0.33-2.2c0-0.73,0.12-1.43,0.35-2.09
		c0.23-0.66,0.57-1.24,1-1.74c0.43-0.5,0.95-0.9,1.57-1.19c0.61-0.29,1.31-0.44,2.08-0.44c0.81,0,1.54,0.17,2.19,0.51
		c0.64,0.34,1.18,0.79,1.61,1.35c0.43,0.56,0.74,1.2,0.93,1.93c0.19,0.73,0.24,1.48,0.15,2.25H276.11z M281.43,50.4
		c-0.03-0.36-0.1-0.71-0.23-1.04c-0.13-0.33-0.3-0.62-0.52-0.87c-0.22-0.25-0.49-0.45-0.8-0.6c-0.31-0.15-0.66-0.23-1.05-0.23
		c-0.4,0-0.76,0.07-1.09,0.21c-0.33,0.14-0.61,0.33-0.84,0.58c-0.23,0.25-0.42,0.54-0.56,0.87c-0.14,0.33-0.22,0.69-0.23,1.08
		H281.43z"/>
	<path class="st1" d="M84.87,72l19.95-36.03L84.94,0h4.98c2.72,0,6.04,1.96,7.35,4.34l17.49,31.63l-17.54,31.7
		C95.89,70.05,92.58,72,89.86,72H84.87z"/>
	<path class="st0" d="M80,19.99v32.18h-5.63h0V37.66H59.72v14.52h-5.64V19.99h5.64v12.8h14.65v-12.8h0H80z M48.44,52.17L48.44,52.17
		h-5.63V19.99h5.63V52.17z M37.26,52.17L37.26,52.17h-5.95L16.66,28.51h-0.13v23.67h-5.36h0V19.99h0h5.95h0L31.8,43.7h0.09V19.99
		h5.36V52.17z M99.85,35.97L79.94,0H6.63C2.97,0,0,2.97,0,6.63v58.74C0,69.03,2.97,72,6.63,72h73.25L99.85,35.97z"/>
</g>
</svg>
