<?xml version="1.0" encoding="utf-8"?>
<!-- Generator: Adobe Illustrator 23.0.2, SVG Export Plug-In . SVG Version: 6.00 Build 0)  -->
<svg version="1.1" id="Layer_1" xmlns="http://www.w3.org/2000/svg" xmlns:xlink="http://www.w3.org/1999/xlink" x="0px" y="0px"
	 viewBox="0 0 658.9 218.94" style="enable-background:new 0 0 658.9 218.94;" xml:space="preserve">
<style type="text/css">
	.st0{fill:#FFFFFF;}
</style>
<g>
	<g>
		<path class="st0" d="M502.44,165.83c-5.71,10.94-12.77,17.25-23.89,17.25c-16.38,0-27.66-15.9-27.66-38.84
			c0-23.55,11.29-39.29,28.1-39.29c14.89,0,19.99,11.1,23.76,18.89v-17.1h12.31v74.68c0,19.5-11.87,30.59-32.46,30.59
			c-16.98,0-28.56-7.79-28.56-19.04c0-1.8-0.06-4.18,0.84-6.75l10.86,4.93c-1.02,7.71,8,10.52,16.86,10.52
			c12.32,0,19.83-5.85,19.83-15.75L502.44,165.83 M464.28,142.13c0,13.2,1.81,20.24,6.76,25.34c3,3.15,7.06,4.8,12.17,4.8
			c12.18,0,19.38-9.9,19.38-26.4c0-19.04-7.97-30.89-20.59-30.89C470.73,114.99,464.28,124.88,464.28,142.13"/>
		<path class="st0" d="M592.96,143.03c0,24.44-13.83,40.04-35.02,40.04c-20.14,0-34.11-16.2-34.11-39.59
			c0-22.64,14.13-38.69,34.26-38.69C578.53,104.79,592.96,120.53,592.96,143.03 M537.05,144.23c0,17.84,7.96,28.04,22.09,28.04
			c12.77,0,20.59-10.65,20.59-28.35c0-20.24-9.48-28.49-21.79-28.49C545.02,115.44,537.05,125.49,537.05,144.23"/>
		<polygon class="st0" points="591.02,106.74 603.31,106.74 621.8,163.28 639.85,106.74 651.97,106.74 628.63,180.82 615.14,180.82 
					"/>
		<polygon class="st0" points="212.59,26.59 233.48,25.9 210.43,39.3 207.08,59.46 196.4,47.46 173.57,60.56 190.03,39.98 
			179.27,27.69 200.11,27 216.05,6.94 		"/>
		<path class="st0" d="M172.33,33.73C89.32,44.5,27.87,72.58,6.94,96.56c21.8-20.27,91.9-43.78,171.1-56.08L172.33,33.73z"/>
		<path class="st0" d="M206.86,70.98c-2.14,0-4.66,0.17-6.63,1.37c-4.84,3.06-4.48,13.1-4.48,17.86v44.23
			c0,13.44-0.72,28.75-11.47,38.79c-9.5,8.85-21.87,11.23-34.78,11.23c-8.24,0-15.06-0.85-22.94-3.58
			c-20.97-7.32-27.42-19.9-27.42-40.32V70.98H85.16v-3.4h55.03v3.4H126.2v66.01c0,9.86-0.9,21.09,5.56,29.6
			c6.27,8.33,14.33,11.06,24.91,11.06c11.83,0,24.55-4.6,30.29-14.97c4.85-8.85,4.49-19.4,4.49-29.09V88.67
			c0-10.38-0.37-17.86-13.08-17.86h-3.41v-3.23h33.16v3.4L206.86,70.98"/>
		<path class="st0" d="M352.75,180.82v-3.24h13.4l-12.01-32.66H322.1l-6.97,18.88c-1.04,2.73-1.74,5.79-1.74,8.68
			c0,5.78,8.71,5.1,12.7,5.1v3.24h-33.43v-3.24h4.01c8.35,0,11.49-5.78,14.1-12.76l36.74-100.36h2.43l44.05,113.12h11.15v3.24
			L352.75,180.82 M338.29,100.69l-14.8,40.66h29.43L338.29,100.69z"/>
		<path class="st0" d="M427.08,182.85c-6.93,0-12.69-5.88-12.69-12.94c0-7.06,5.77-12.94,12.69-12.94c6.93,0,12.51,5.88,12.51,12.94
			C439.6,176.97,434.01,182.85,427.08,182.85"/>
		<path class="st0" d="M255.36,183.54c-10.29,0-18.28-2.89-27.87-6.29c-0.89-0.34-1.96-0.68-2.84-1.02
			c-1.95-0.85-5.33-3.06-7.46-3.06c-4.43,0-3.55,4.25-5.33,6.29l-0.17,1.37h-3.02l-0.89-42.87h3.37
			c2.85,11.23,6.4,19.91,14.56,28.41c7.99,8.33,17.4,13.77,29.47,13.77c13.31,0,25.2-8.5,25.2-21.94
			c0-15.31-12.96-18.88-25.92-21.94l-10.31-2.38c-9.22-2.05-18.27-3.74-25.55-9.86c-2.84-2.38-4.8-4.94-6.57-8.17
			c-3.02-5.43-4.26-11.39-4.26-17.52c0-20.93,17.57-33.85,38.35-33.85c9.58,0,17.57,2.89,26.28,6.63c2.48,1.02,5.49,2.72,8.34,2.72
			c4.08,0,4.26-3.57,4.44-6.64h3.37v36.57h-3.55c-3.55-18.36-16.16-35.89-37.46-35.89c-12.07,0-24.67,6.97-24.67,19.73
			c0,13.44,14.2,16.5,25.38,18.71c6.04,1.19,12.07,2.04,17.93,3.4c19.53,4.42,30.18,16.16,30.18,35.56
			C296.38,167.89,278.62,183.54,255.36,183.54"/>
	</g>
</g>
</svg>
